<svg xmlns="http://www.w3.org/2000/svg" width="100" height="100" viewBox="0 0 100 100"><filter id="a" filterUnits="objectBoundingBox"><feGaussianBlur in="SourceAlpha" result="blur" stdDeviation="2"/><feOffset dy="4" dx="4" in="blur" result="offsetBlurredAlpha"/><feMerge><feMergeNode in="offsetBlurredAlpha"/><feMergeNode in="SourceGraphic"/></feMerge></filter><g><path fill="#5E584D" d="M0 0h100v100H0z"/><path fill="#F0E9DF" d="M9.895 9.815h80.208V89.25H9.895z" filter="url(#a)"/><path fill="#F0E9DF" d="M5.784 5.744h88.43V93.32H5.783z"/><path fill="#5F594E" d="M30.543 23.965v50H72.03v-50H30.544zm39.11 48.248H32.92V25.716h36.732v46.497zM34.97 28.128h32.636v11.714H34.97zM34.97 41.69h20.843V69.8H34.97zM58.215 41.688h9.39v28.115h-9.39z"/><g stroke="#EFE8DE" stroke-width=".5" stroke-linecap="round" stroke-miterlimit="10" fill="none"><path d="M37.436 45.055h15.91M37.436 47.965h13.85M37.436 50.876h15.91M37.436 53.786H51.42M37.436 56.695h7.697M37.436 59.605H51.42M37.436 62.516H48.88"/></g><path fill="#E0DAD1" d="M57.5 61.276c-1.26 0-2.432.372-3.443 1.008-1.453-3.902-5.247-6.684-9.695-6.684-5.134 0-9.393 3.707-10.192 8.56-3.478.284-6.2 2.83-6.2 5.924 0 3.055 2.65 5.57 6.062 5.91v.04h23.803v-.018c3.627-.19 6.514-3.407 6.514-7.36-.002-4.077-3.07-7.38-6.85-7.38z"/><path fill="#5F594E" d="M34.533 73.53l-.252-.03c-2.17-.218-3.807-1.686-3.807-3.416 0-1.742 1.713-3.246 3.9-3.425l1.95-.162.318-1.93c.618-3.744 3.865-6.464 7.72-6.464 3.268 0 6.222 2.03 7.347 5.054l1.074 2.882 2.605-1.634c.66-.412 1.37-.622 2.112-.622 2.394 0 4.344 2.185 4.344 4.872 0 2.604-1.818 4.736-4.14 4.858l-.307.016h-22.86z"/></g></svg>