<svg xmlns="http://www.w3.org/2000/svg" width="100" height="100" viewBox="0 0 100 100"><filter id="a" filterUnits="objectBoundingBox"><feGaussianBlur in="SourceAlpha" result="blur" stdDeviation="2"/><feOffset dy="4" dx="4" in="blur" result="offsetBlurredAlpha"/><feMerge><feMergeNode in="offsetBlurredAlpha"/><feMergeNode in="SourceGraphic"/></feMerge></filter><g><path fill="#5E584D" d="M0 0h100v100H0z"/><path fill="#F0E9DF" d="M9.895 9.815h80.208V89.25H9.895z" filter="url(#a)"/><path fill="#F0E9DF" d="M5.784 5.744h88.43v87.578H5.783z"/><g fill="#5E584D"><path d="M72.12 61.26L61.244 48.887c-1.8-2.05-5.014-2.17-7.175-.27l-5.962 5.24c-2.16 1.9-2.452 5.1-.65 7.15l10.88 12.372c1.8 2.05 5.014 2.17 7.174.27l5.962-5.24c2.16-1.9 2.452-5.1.65-7.15zm-2.82 3.268c-.02.188-.103.554-.47.877l-5.96 5.24c-.35.31-.708.355-.89.355-.187 0-.452-.046-.642-.26L50.46 58.365c-.337-.383-.205-1.072.287-1.505l5.96-5.24c.35-.307.708-.353.89-.353.188 0 .45.045.64.26L69.118 63.9c.18.204.197.454.182.628zM52.544 38.992l-10.878-12.37c-1.803-2.05-5.016-2.17-7.175-.273l-5.96 5.24c-2.16 1.9-2.452 5.102-.65 7.152l10.878 12.37c1.802 2.05 5.014 2.17 7.174.272l5.963-5.24c2.16-1.9 2.45-5.102.65-7.152zm-3.29 4.145l-5.965 5.242c-.35.306-.706.352-.887.352-.188 0-.453-.045-.644-.26L30.882 36.1c-.18-.204-.198-.455-.182-.63.02-.187.102-.553.47-.875l5.962-5.243c.348-.306.704-.352.886-.352.188 0 .453.045.644.262l10.878 12.37c.335.383.205 1.073-.287 1.505zM57.547 58.584c-.83.73-2.254.465-3.177-.585L42.63 44.643c-.928-1.054-1.008-2.5-.178-3.23.83-.727 2.253-.465 3.18.59l11.74 13.352c.928 1.053 1.003 2.5.175 3.228z"/></g></g></svg>