<svg xmlns="http://www.w3.org/2000/svg" width="100" height="100" viewBox="0 0 100 100"><filter id="a" filterUnits="objectBoundingBox"><feGaussianBlur in="SourceAlpha" result="blur" stdDeviation="2"/><feOffset dy="4" dx="4" in="blur" result="offsetBlurredAlpha"/><feMerge><feMergeNode in="offsetBlurredAlpha"/><feMergeNode in="SourceGraphic"/></feMerge></filter><g><path fill="#5E584D" d="M0 0h100v100H0z"/><path fill="#F0E9DF" d="M9.895 9.815h80.208V89.25H9.895z" filter="url(#a)"/><path fill="#F0E9DF" d="M5.783 5.744h88.43v87.578H5.783z"/><path fill="#5E584D" d="M29.256 25v50h41.487V25H29.256zm39.108 48.25H31.632v-46.5h36.732v46.5zM33.68 29.163H66.32v11.714H33.68zM33.68 42.724h20.845v28.114H33.68zM56.927 42.723h9.392v28.115h-9.393z"/><g stroke="#EFE8DE" stroke-width=".5" stroke-linecap="round" stroke-miterlimit="10" fill="none"><path d="M36.148 46.09h15.91M36.148 49H50M36.148 51.91h15.91M36.148 54.82h13.985M36.148 57.73h7.697M36.148 60.642h13.985M36.148 63.552h11.445"/></g></g></svg>