<svg xmlns="http://www.w3.org/2000/svg" width="100" height="100" viewBox="0 0 100 100"><filter id="a" filterUnits="objectBoundingBox"><feGaussianBlur in="SourceAlpha" result="blur" stdDeviation="2"/><feOffset dy="4" dx="4" in="blur" result="offsetBlurredAlpha"/><feMerge><feMergeNode in="offsetBlurredAlpha"/><feMergeNode in="SourceGraphic"/></feMerge></filter><g><path fill="#5E584D" d="M0 0h100v100H0z"/><path fill="#F0E9DF" d="M9.895 9.815h80.208V89.25H9.895z" filter="url(#a)"/><path fill="#F0E9DF" d="M5.784 5.744h88.43V93.32H5.783z"/><g fill="#5F5A4F"><ellipse cx="49.926" cy="39.489" rx="12.162" ry="14.489"/><path d="M76.137 75C75.2 63.256 63.855 53.98 50 53.98c-13.856 0-25.2 9.276-26.137 21.02h52.274zM31.454 58.103c2.304-1.7 4.955-3.056 7.847-3.982.556-.77 1.027-1.63 1.4-2.56-2.792-1.917-4.855-5.352-5.303-9.445-.237-2.176.012-4.268.643-6.123-1.22-.675-2.574-1.055-4.003-1.055-5.307 0-9.61 5.192-9.61 11.595 0 6.167 3.99 11.206 9.027 11.57zM31.71 57.92c-10.884.164-19.74 7.64-20.48 17.08h10.135c.537-6.973 4.478-13.106 10.345-17.08zM68.545 58.103c-2.304-1.7-4.953-3.056-7.846-3.982-.555-.77-1.026-1.63-1.398-2.56 2.792-1.917 4.854-5.352 5.302-9.445.238-2.176-.012-4.268-.642-6.123 1.218-.675 2.573-1.055 4-1.055 5.31 0 9.61 5.192 9.61 11.595 0 6.167-3.99 11.206-9.027 11.57zM68.29 57.92c10.885.164 19.74 7.64 20.48 17.08H78.636c-.536-6.973-4.478-13.106-10.344-17.08z"/></g></g></svg>