<?xml version="1.0" encoding="utf-8"?>
<!-- Generator: Adobe Illustrator 15.1.0, SVG Export Plug-In . SVG Version: 6.00 Build 0)  -->
<!DOCTYPE svg PUBLIC "-//W3C//DTD SVG 1.1//EN" "http://www.w3.org/Graphics/SVG/1.1/DTD/svg11.dtd">
<svg version="1.1" xmlns="http://www.w3.org/2000/svg" xmlns:xlink="http://www.w3.org/1999/xlink" x="0px" y="0px" width="100px"
	 height="100px" viewBox="0 0 100 100" enable-background="new 0 0 100 100" xml:space="preserve">
<filter  id="AI_Shadow_1" filterUnits="objectBoundingBox">
	<feGaussianBlur  in="SourceAlpha" result="blur" stdDeviation="2"></feGaussianBlur>
	<feOffset  dy="4" dx="4" in="blur" result="offsetBlurredAlpha"></feOffset>
	<feMerge>
		<feMergeNode  in="offsetBlurredAlpha"></feMergeNode>
		<feMergeNode  in="SourceGraphic"></feMergeNode>
	</feMerge>
</filter>
<g id="Template" display="none">
	<g display="inline">
		<rect fill="#1A1A1A" stroke="#070808" stroke-width="0.25" stroke-miterlimit="10" width="100" height="100"/>
		<rect x="1.5" y="1.5" fill="#F5F5F5" width="97" height="96.064"/>
		<g filter="url(#AI_Shadow_1)">
			<rect x="8.905" y="8.834" fill="#DD574B" width="82.187" height="81.396"/>
		</g>
		<rect x="5.784" y="5.744" fill="#8AA251" width="88.429" height="87.578"/>
	</g>
	<g display="inline">
		<g>
			<path fill="#6D7D4A" d="M27.108,22v60h49.785V22H27.108z"/>
			<g>
				<rect x="34.243" y="29.326" fill="#6D7D4A" width="35.513" height="12.747"/>
				<rect x="34.243" y="44.083" fill="#6D7D4A" width="22.683" height="30.591"/>
				<rect x="59.539" y="44.082" fill="#6D7D4A" width="10.217" height="30.592"/>
			</g>
		</g>
		<path fill="#D4DFD1" d="M25.18,20.088v60h49.784v-60H25.18z M70.056,75.386h-39.97V24.79h39.97V75.386z"/>
		<rect x="32.315" y="27.414" fill="#D4DFD1" width="35.513" height="12.747"/>
		<rect x="32.315" y="42.17" fill="#D4DFD1" width="22.682" height="30.591"/>
		<rect x="57.61" y="42.17" fill="#D4DFD1" width="10.218" height="30.592"/>
		<g>
			
				<line fill="none" stroke="#6D7D4A" stroke-width="0.5" stroke-linecap="round" stroke-miterlimit="10" x1="35" y1="45.833" x2="52.313" y2="45.833"/>
			
				<line fill="none" stroke="#6D7D4A" stroke-width="0.5" stroke-linecap="round" stroke-miterlimit="10" x1="35" y1="49" x2="50.072" y2="49"/>
			
				<line fill="none" stroke="#6D7D4A" stroke-width="0.5" stroke-linecap="round" stroke-miterlimit="10" x1="35" y1="52.167" x2="52.313" y2="52.167"/>
			
				<line fill="none" stroke="#6D7D4A" stroke-width="0.5" stroke-linecap="round" stroke-miterlimit="10" x1="35" y1="55.334" x2="50.217" y2="55.334"/>
			
				<line fill="none" stroke="#6D7D4A" stroke-width="0.5" stroke-linecap="round" stroke-miterlimit="10" x1="35" y1="58.5" x2="43.375" y2="58.5"/>
			
				<line fill="none" stroke="#6D7D4A" stroke-width="0.5" stroke-linecap="round" stroke-miterlimit="10" x1="35" y1="61.667" x2="50.217" y2="61.667"/>
			
				<line fill="none" stroke="#6D7D4A" stroke-width="0.5" stroke-linecap="round" stroke-miterlimit="10" x1="35" y1="64.834" x2="47.453" y2="64.834"/>
		</g>
	</g>
</g>
<g id="Entities" display="none">
	<g display="inline">
		<rect fill="#1A1A1A" stroke="#070808" stroke-width="0.25" stroke-miterlimit="10" width="100" height="100"/>
		<rect x="1.5" y="1.5" fill="#F5F5F5" width="97" height="96.064"/>
		<g filter="url(#AI_Shadow_1)">
			<rect x="8.905" y="8.834" fill="#DD574B" width="82.187" height="81.396"/>
		</g>
		<rect x="5.784" y="5.744" fill="#F39943" width="88.429" height="87.578"/>
		<g>
			<polygon fill="#CC7A2B" points="57.108,15.023 57.108,46.931 89.173,46.931 			"/>
			<polygon fill="#CC7A2B" points="46.892,15.023 46.892,46.931 14.827,46.931 			"/>
			<polygon fill="#CC7A2B" points="14.827,57.147 46.892,57.147 46.892,88.741 			"/>
			<polygon fill="#CC7A2B" points="57.108,57.147 89.173,57.147 57.344,88.977 			"/>
		</g>
		<g>
			<polygon fill="#F0E9DF" points="55.108,13.023 55.108,44.931 87.173,44.931 			"/>
			<polygon fill="#3FAA96" points="44.892,13.023 44.892,44.931 12.827,44.931 			"/>
			<polygon fill="#F0E9DF" points="12.827,55.147 44.892,55.147 44.892,86.741 			"/>
			<polygon fill="#EF4228" points="55.108,55.147 87.173,55.147 55.344,86.977 			"/>
		</g>
	</g>
</g>
<g id="Links" display="none">
	<g display="inline">
		<rect fill="#1A1A1A" stroke="#070808" stroke-width="0.25" stroke-miterlimit="10" width="100" height="100"/>
		<rect x="1.5" y="1.5" fill="#F5F5F5" width="97" height="96.064"/>
		<g filter="url(#AI_Shadow_1)">
			<rect x="8.905" y="8.834" fill="#DD574B" width="82.187" height="81.396"/>
		</g>
		<rect x="5.784" y="5.744" fill="#DD574C" width="88.429" height="87.578"/>
	</g>
	<g display="inline">
		<g>
			<path fill="#BB4136" d="M81.389,64.825L67.058,48.526c-2.375-2.701-6.607-2.86-9.454-0.358l-7.855,6.905
				c-2.846,2.503-3.229,6.722-0.855,9.421l14.331,16.301c2.374,2.7,6.606,2.86,9.453,0.358l7.855-6.907
				C83.377,71.745,83.764,67.526,81.389,64.825z M69.971,75.232c-1.822,1.603-4.536,1.502-6.059-0.229l-9.187-10.448
				c-1.522-1.732-1.275-4.436,0.549-6.039l5.036-4.428c1.822-1.603,4.536-1.502,6.06,0.229l9.186,10.448
				c1.523,1.731,1.274,4.436-0.55,6.038L69.971,75.232z"/>
			<path fill="#BB4136" d="M55.594,35.486L41.263,19.187c-2.375-2.702-6.608-2.86-9.454-0.359l-7.855,6.906
				c-2.846,2.503-3.23,6.72-0.855,9.421l14.331,16.3c2.374,2.7,6.606,2.86,9.453,0.356l7.855-6.906
				C57.584,42.406,57.967,38.187,55.594,35.486z M44.177,45.892c-1.824,1.604-4.537,1.503-6.061-0.229l-9.186-10.448
				c-1.522-1.732-1.275-4.437,0.549-6.04l5.036-4.427c1.824-1.603,4.537-1.501,6.059,0.23l9.186,10.448
				c1.524,1.732,1.275,4.436-0.548,6.039L44.177,45.892z"/>
			<path fill="#BB4136" d="M64.051,63.421c-1.647,1.45-4.16,1.288-5.606-0.358l-18.37-20.895c-1.449-1.648-1.288-4.159,0.361-5.609
				l0,0c1.648-1.448,4.16-1.287,5.608,0.361l18.369,20.894C65.861,59.461,65.699,61.973,64.051,63.421L64.051,63.421z"/>
		</g>
		<g>
			<g>
				<path fill="#8BA650" d="M78.809,64.924L64.476,48.625c-2.373-2.701-6.605-2.86-9.453-0.358l-7.854,6.906
					c-2.847,2.503-3.23,6.72-0.855,9.421l14.332,16.3c2.373,2.701,6.606,2.86,9.453,0.357l7.854-6.906
					C80.797,71.845,81.184,67.625,78.809,64.924z M67.392,75.33c-1.823,1.604-4.537,1.504-6.061-0.229l-9.186-10.447
					c-1.523-1.733-1.275-4.437,0.549-6.041l5.036-4.426c1.822-1.604,4.536-1.504,6.06,0.229l9.185,10.449
					c1.524,1.731,1.275,4.435-0.549,6.038L67.392,75.33z"/>
				<path fill="#45909E" d="M53.014,35.585L38.682,19.286c-2.375-2.702-6.608-2.86-9.454-0.359l-7.855,6.906
					c-2.846,2.503-3.23,6.721-0.855,9.422l14.331,16.301c2.374,2.698,6.606,2.858,9.453,0.356l7.855-6.906
					C55.004,42.505,55.387,38.286,53.014,35.585z M41.596,45.991c-1.824,1.604-4.537,1.503-6.06-0.229l-9.186-10.448
					c-1.523-1.732-1.275-4.436,0.548-6.04l5.036-4.427c1.823-1.603,4.537-1.502,6.06,0.23l9.186,10.448
					c1.523,1.733,1.275,4.436-0.548,6.039L41.596,45.991z"/>
			</g>
			<path fill="#F8AA3E" d="M61.47,63.52c-1.524,1.341-3.936,1.09-5.381-0.557L37.718,42.069c-1.448-1.647-1.388-4.07,0.136-5.411
				l0,0c1.524-1.34,3.935-1.089,5.383,0.558l18.37,20.893C63.056,59.757,62.994,62.182,61.47,63.52L61.47,63.52z"/>
		</g>
	</g>
</g>
<g id="Template_1_" display="none">
	<g display="inline">
		<g>
			<rect fill="#5E584D" width="100" height="100"/>
			<g filter="url(#AI_Shadow_1)">
				<rect x="9.895" y="9.815" fill="#F0E9DF" width="80.208" height="79.435"/>
			</g>
			<rect x="5.783" y="5.744" fill="#F0E9DF" width="88.43" height="87.578"/>
		</g>
		<g>
			<path fill="#5E584D" d="M29.256,25v50h41.487V25H29.256z M68.364,73.249H31.632V26.75h36.732V73.249z"/>
			<rect x="33.681" y="29.163" fill="#5E584D" width="32.637" height="11.714"/>
			<rect x="33.681" y="42.724" fill="#5E584D" width="20.844" height="28.114"/>
			<rect x="56.927" y="42.723" fill="#5E584D" width="9.392" height="28.115"/>
			<g>
				
					<line fill="none" stroke="#EFE8DE" stroke-width="0.5" stroke-linecap="round" stroke-miterlimit="10" x1="36.148" y1="46.09" x2="52.059" y2="46.09"/>
				
					<line fill="none" stroke="#EFE8DE" stroke-width="0.5" stroke-linecap="round" stroke-miterlimit="10" x1="36.148" y1="49" x2="50" y2="49"/>
				
					<line fill="none" stroke="#EFE8DE" stroke-width="0.5" stroke-linecap="round" stroke-miterlimit="10" x1="36.148" y1="51.91" x2="52.059" y2="51.91"/>
				
					<line fill="none" stroke="#EFE8DE" stroke-width="0.5" stroke-linecap="round" stroke-miterlimit="10" x1="36.148" y1="54.821" x2="50.133" y2="54.821"/>
				
					<line fill="none" stroke="#EFE8DE" stroke-width="0.5" stroke-linecap="round" stroke-miterlimit="10" x1="36.148" y1="57.73" x2="43.845" y2="57.73"/>
				
					<line fill="none" stroke="#EFE8DE" stroke-width="0.5" stroke-linecap="round" stroke-miterlimit="10" x1="36.148" y1="60.642" x2="50.133" y2="60.642"/>
				
					<line fill="none" stroke="#EFE8DE" stroke-width="0.5" stroke-linecap="round" stroke-miterlimit="10" x1="36.148" y1="63.552" x2="47.593" y2="63.552"/>
			</g>
		</g>
	</g>
</g>
<g id="Entities_1_" display="none">
	<g display="inline">
		<g>
			<rect fill="#5E584D" width="100" height="100"/>
			<g filter="url(#AI_Shadow_1)">
				<rect x="9.895" y="9.815" fill="#F0E9DF" width="80.208" height="79.435"/>
			</g>
			<rect x="5.784" y="5.744" fill="#F0E9DF" width="88.429" height="87.578"/>
		</g>
		<g>
			<polygon fill="#5E584D" points="53.454,25 53.454,46.573 75.133,46.573 			"/>
			<polygon fill="#5E584D" points="46.546,25 46.546,46.573 24.867,46.573 			"/>
			<polygon fill="#5E584D" points="24.867,53.48 46.546,53.48 46.546,74.841 			"/>
			<polygon fill="#5E584D" points="53.454,53.48 75.133,53.48 53.613,75 			"/>
		</g>
	</g>
</g>
<g id="Links_1_" display="none">
	<g display="inline">
		<g>
			<rect fill="#5E584D" width="100" height="100"/>
			<g filter="url(#AI_Shadow_1)">
				<rect x="9.895" y="9.815" fill="#F0E9DF" width="80.208" height="79.435"/>
			</g>
			<rect x="5.784" y="5.744" fill="#F0E9DF" width="88.429" height="87.578"/>
		</g>
		<g>
			<g>
				<g>
					<path fill="#5E584D" d="M72.121,61.259L61.243,48.888c-1.801-2.05-5.014-2.17-7.175-0.271l-5.962,5.241
						c-2.161,1.9-2.452,5.101-0.649,7.15L58.335,73.38c1.802,2.05,5.015,2.17,7.175,0.271l5.962-5.241
						C73.631,66.511,73.924,63.309,72.121,61.259z M69.299,64.528c-0.018,0.188-0.102,0.554-0.469,0.877l-5.961,5.241
						C62.519,70.954,62.162,71,61.981,71c-0.188,0-0.453-0.046-0.643-0.261L50.46,58.366c-0.337-0.383-0.205-1.072,0.287-1.505
						l5.961-5.241c0.35-0.307,0.707-0.353,0.889-0.353c0.188,0,0.451,0.045,0.641,0.26L69.117,63.9
						C69.296,64.104,69.314,64.354,69.299,64.528z"/>
					<path fill="#5E584D" d="M52.544,38.992L41.666,26.621c-1.803-2.05-5.016-2.17-7.175-0.272l-5.961,5.242
						c-2.161,1.899-2.452,5.101-0.649,7.151l10.877,12.371c1.802,2.048,5.014,2.17,7.174,0.271l5.963-5.241
						C54.054,44.244,54.345,41.042,52.544,38.992z M49.253,43.137l-5.964,5.242c-0.349,0.307-0.705,0.353-0.886,0.353
						c-0.188,0-0.453-0.045-0.644-0.261L30.883,36.1c-0.179-0.204-0.198-0.455-0.182-0.629c0.018-0.188,0.101-0.554,0.469-0.876
						l5.962-5.243C37.48,29.046,37.836,29,38.018,29c0.188,0,0.453,0.045,0.644,0.262L49.54,41.633
						C49.875,42.015,49.745,42.705,49.253,43.137z"/>
				</g>
				<path fill="#5E584D" d="M57.547,58.584c-0.829,0.729-2.254,0.465-3.177-0.585L42.629,44.644
					c-0.927-1.054-1.007-2.499-0.177-3.229l0,0c0.829-0.728,2.253-0.466,3.181,0.588l11.739,13.353
					C58.3,56.409,58.375,57.856,57.547,58.584L57.547,58.584z"/>
			</g>
		</g>
	</g>
</g>
<g id="Template_Repositinges" display="none">
	<g display="inline">
		<g>
			<rect fill="#5E584D" width="100" height="100"/>
			<g filter="url(#AI_Shadow_1)">
				<rect x="9.895" y="9.815" fill="#F0E9DF" width="80.208" height="79.435"/>
			</g>
			<rect x="5.784" y="5.744" fill="#F0E9DF" width="88.429" height="87.577"/>
		</g>
		<g>
			<g>
				<rect x="33.916" y="25" fill="#C2BCB6" width="38.304" height="45.821"/>
				<g>
					<path fill="#5F594E" d="M71.425,44.667H34.712c-1.955,0-3.539,1.584-3.539,3.538v5.751c0,1.954,1.584,3.538,3.539,3.538h36.712
						c1.953,0,3.538-1.584,3.538-3.538v-5.751C74.963,46.25,73.378,44.667,71.425,44.667z M38.411,53.861H34.8v-5.563h3.611V53.861z
						"/>
					<path fill="#5F594E" d="M71.425,30.025H34.712c-1.955,0-3.539,1.583-3.539,3.538v5.751c0,1.954,1.584,3.538,3.539,3.538h36.712
						c1.953,0,3.538-1.584,3.538-3.538v-5.751C74.963,31.609,73.378,30.025,71.425,30.025z M38.411,39.205H34.8v-5.561h3.611V39.205
						z"/>
					<path fill="#5F594E" d="M71.425,59.439H34.712c-1.955,0-3.539,1.585-3.539,3.539v5.751c0,1.953,1.584,3.537,3.539,3.537h36.712
						c1.953,0,3.538-1.584,3.538-3.537v-5.751C74.963,61.024,73.378,59.439,71.425,59.439z M38.411,68.634H34.8v-5.56h3.611V68.634z
						"/>
				</g>
			</g>
			<g>
				<path fill="#E0DAD1" d="M52.011,59.52c-1.318,0-2.549,0.39-3.611,1.057c-1.524-4.093-5.501-7.011-10.168-7.011
					c-5.385,0-9.851,3.889-10.69,8.979c-3.648,0.298-6.504,2.966-6.504,6.213c0,3.204,2.781,5.841,6.359,6.198V75h0.826h10.009
					h13.779h0.352v-0.02c3.804-0.201,6.832-3.574,6.832-7.721C59.194,62.983,55.978,59.52,52.011,59.52z"/>
				<path fill="#5F594E" d="M27.923,72.372l-0.265-0.031c-2.276-0.229-3.993-1.769-3.993-3.583c0-1.827,1.797-3.405,4.09-3.593
					l2.045-0.169l0.334-2.023c0.647-3.928,4.053-6.78,8.097-6.78c3.428,0,6.525,2.131,7.706,5.301l1.126,3.022l2.733-1.713
					c0.691-0.434,1.436-0.653,2.214-0.653c2.512,0,4.556,2.292,4.556,5.11c0,2.73-1.907,4.968-4.342,5.096l-0.322,0.017H27.923z"/>
			</g>
		</g>
	</g>
</g>
<g id="Document_Stroge" display="none">
	<g display="inline">
		<g>
			<rect fill="#5E584D" width="100" height="100"/>
			<g filter="url(#AI_Shadow_1)">
				<rect x="9.895" y="9.815" fill="#F0E9DF" width="80.208" height="79.435"/>
			</g>
			<rect x="5.784" y="5.744" fill="#F0E9DF" width="88.429" height="87.577"/>
		</g>
		<g>
			<g>
				<rect x="33.916" y="25" fill="#C2BCB6" width="38.304" height="45.821"/>
				<g>
					<path fill="#5F594E" d="M71.425,44.667H34.712c-1.955,0-3.539,1.584-3.539,3.538v5.751c0,1.954,1.584,3.538,3.539,3.538h36.712
						c1.953,0,3.538-1.584,3.538-3.538v-5.751C74.963,46.25,73.378,44.667,71.425,44.667z M38.411,53.861H34.8v-5.563h3.611V53.861z
						"/>
					<path fill="#5F594E" d="M71.425,30.025H34.712c-1.955,0-3.539,1.583-3.539,3.538v5.751c0,1.954,1.584,3.538,3.539,3.538h36.712
						c1.953,0,3.538-1.584,3.538-3.538v-5.751C74.963,31.609,73.378,30.025,71.425,30.025z M38.411,39.205H34.8v-5.561h3.611V39.205
						z"/>
					<path fill="#5F594E" d="M71.425,59.439H34.712c-1.955,0-3.539,1.585-3.539,3.539v5.751c0,1.953,1.584,3.537,3.539,3.537h36.712
						c1.953,0,3.538-1.584,3.538-3.537v-5.751C74.963,61.024,73.378,59.439,71.425,59.439z M38.411,68.634H34.8v-5.56h3.611V68.634z
						"/>
				</g>
			</g>
			<g>
				<path fill="#E0DAD1" d="M52.011,59.52c-1.318,0-2.549,0.39-3.611,1.057c-1.524-4.093-5.501-7.011-10.168-7.011
					c-5.385,0-9.851,3.889-10.69,8.979c-3.648,0.298-6.504,2.966-6.504,6.213c0,3.204,2.781,5.841,6.359,6.198V75h0.826h10.009
					h13.779h0.352v-0.02c3.804-0.201,6.832-3.574,6.832-7.721C59.194,62.983,55.978,59.52,52.011,59.52z"/>
				<path fill="#5F594E" d="M27.923,72.372l-0.265-0.031c-2.276-0.229-3.993-1.769-3.993-3.583c0-1.827,1.797-3.405,4.09-3.593
					l2.045-0.169l0.334-2.023c0.647-3.928,4.053-6.78,8.097-6.78c3.428,0,6.525,2.131,7.706,5.301l1.126,3.022l2.733-1.713
					c0.691-0.434,1.436-0.653,2.214-0.653c2.512,0,4.556,2.292,4.556,5.11c0,2.73-1.907,4.968-4.342,5.096l-0.322,0.017H27.923z"/>
			</g>
		</g>
	</g>
</g>
<g id="Document" display="none">
	<g display="inline">
		<g>
			<g>
				<rect fill="#5E584D" width="100" height="100"/>
				<g filter="url(#AI_Shadow_1)">
					<rect x="9.895" y="9.815" fill="#F0E9DF" width="80.208" height="79.435"/>
				</g>
				<rect x="5.784" y="5.744" fill="#F0E9DF" width="88.429" height="87.577"/>
			</g>
		</g>
		<g>
			<g>
				<rect x="30.848" y="26.366" fill="#C2BCB6" width="38.304" height="45.821"/>
				<g>
					<path fill="#5F594E" d="M68.356,46.033H31.645c-1.955,0-3.539,1.584-3.539,3.538v5.751c0,1.954,1.584,3.538,3.539,3.538h36.712
						c1.953,0,3.538-1.584,3.538-3.538v-5.751C71.895,47.617,70.31,46.033,68.356,46.033z M35.343,55.229h-3.61v-5.563h3.61V55.229z
						"/>
					<path fill="#5F594E" d="M68.356,31.393H31.645c-1.955,0-3.539,1.583-3.539,3.538v5.751c0,1.953,1.584,3.537,3.539,3.537h36.712
						c1.953,0,3.538-1.584,3.538-3.537v-5.751C71.895,32.976,70.31,31.393,68.356,31.393z M35.343,40.572h-3.61v-5.561h3.61V40.572z
						"/>
					<path fill="#5F594E" d="M68.356,60.807H31.645c-1.955,0-3.539,1.585-3.539,3.539v5.751c0,1.953,1.584,3.537,3.539,3.537h36.712
						c1.953,0,3.538-1.584,3.538-3.537v-5.751C71.895,62.392,70.31,60.807,68.356,60.807z M35.343,70.001h-3.61v-5.56h3.61V70.001z"
						/>
				</g>
			</g>
		</g>
	</g>
</g>
<g id="Template_Repositinges_copy" display="none">
	<g display="inline">
		<g>
			<rect fill="#5E584D" width="100" height="100"/>
			<g filter="url(#AI_Shadow_1)">
				<rect x="9.895" y="9.815" fill="#F0E9DF" width="80.208" height="79.435"/>
			</g>
			<rect x="5.784" y="5.744" fill="#F0E9DF" width="88.429" height="87.577"/>
		</g>
	</g>
	<g display="inline">
		<g>
			<path fill="#5F594E" d="M30.543,23.965v50h41.488v-50H30.543z M69.652,72.213H32.92V25.716h36.732V72.213z"/>
			<rect x="34.969" y="28.128" fill="#5F594E" width="32.637" height="11.714"/>
			<rect x="34.969" y="41.689" fill="#5F594E" width="20.844" height="28.113"/>
			<rect x="58.215" y="41.688" fill="#5F594E" width="9.391" height="28.115"/>
			<g>
				
					<line fill="none" stroke="#EFE8DE" stroke-width="0.5" stroke-linecap="round" stroke-miterlimit="10" x1="37.436" y1="45.055" x2="53.346" y2="45.055"/>
				
					<line fill="none" stroke="#EFE8DE" stroke-width="0.5" stroke-linecap="round" stroke-miterlimit="10" x1="37.436" y1="47.965" x2="51.287" y2="47.965"/>
				
					<line fill="none" stroke="#EFE8DE" stroke-width="0.5" stroke-linecap="round" stroke-miterlimit="10" x1="37.436" y1="50.876" x2="53.346" y2="50.876"/>
				
					<line fill="none" stroke="#EFE8DE" stroke-width="0.5" stroke-linecap="round" stroke-miterlimit="10" x1="37.436" y1="53.786" x2="51.42" y2="53.786"/>
				
					<line fill="none" stroke="#EFE8DE" stroke-width="0.5" stroke-linecap="round" stroke-miterlimit="10" x1="37.436" y1="56.695" x2="45.133" y2="56.695"/>
				
					<line fill="none" stroke="#EFE8DE" stroke-width="0.5" stroke-linecap="round" stroke-miterlimit="10" x1="37.436" y1="59.605" x2="51.42" y2="59.605"/>
				
					<line fill="none" stroke="#EFE8DE" stroke-width="0.5" stroke-linecap="round" stroke-miterlimit="10" x1="37.436" y1="62.516" x2="48.88" y2="62.516"/>
			</g>
		</g>
		<g>
			<path fill="#E0DAD1" d="M57.499,61.276c-1.258,0-2.431,0.372-3.442,1.008c-1.453-3.902-5.247-6.684-9.695-6.684
				c-5.134,0-9.393,3.707-10.192,8.561c-3.478,0.283-6.201,2.828-6.201,5.923c0,3.055,2.652,5.569,6.063,5.91v0.041h0.786h9.544
				h13.138h0.335v-0.019c3.627-0.19,6.514-3.407,6.514-7.36C64.348,64.579,61.281,61.276,57.499,61.276z"/>
			<path fill="#5F594E" d="M34.533,73.53l-0.252-0.029c-2.17-0.219-3.808-1.687-3.808-3.417c0-1.742,1.713-3.246,3.899-3.425
				l1.95-0.161l0.319-1.93c0.617-3.744,3.864-6.464,7.719-6.464c3.268,0,6.222,2.031,7.347,5.054l1.074,2.882l2.604-1.634
				c0.659-0.412,1.37-0.622,2.112-0.622c2.394,0,4.344,2.185,4.344,4.872c0,2.604-1.819,4.736-4.14,4.858l-0.308,0.016H34.533z"/>
		</g>
	</g>
</g>
<g id="Users" display="none">
	<g display="inline">
		<g>
			<rect fill="#5E584D" width="100" height="100"/>
			<g filter="url(#AI_Shadow_1)">
				<rect x="9.895" y="9.815" fill="#F0E9DF" width="80.208" height="79.435"/>
			</g>
			<rect x="5.784" y="5.744" fill="#F0E9DF" width="88.429" height="87.577"/>
		</g>
	</g>
	<g display="inline">
		<g>
			<ellipse fill="#5F5A4F" cx="49.926" cy="39.489" rx="12.162" ry="14.489"/>
			<path fill="#5F5A4F" d="M76.137,75C75.199,63.256,63.855,53.979,50,53.979c-13.856,0-25.199,9.277-26.137,21.021H76.137z"/>
		</g>
		<g>
			<g>
				<path fill="#5F5A4F" d="M31.454,58.103c2.304-1.699,4.955-3.056,7.847-3.982c0.555-0.772,1.026-1.632,1.398-2.562
					c-2.791-1.916-4.854-5.351-5.302-9.444c-0.237-2.176,0.012-4.268,0.643-6.123c-1.219-0.675-2.574-1.055-4.003-1.055
					c-5.307,0-9.609,5.192-9.609,11.595C22.427,52.699,26.418,57.738,31.454,58.103z"/>
				<path fill="#5F5A4F" d="M31.71,57.919C20.826,58.084,11.971,65.561,11.23,75h10.135C21.902,68.027,25.843,61.894,31.71,57.919z"
					/>
			</g>
			<g>
				<path fill="#5F5A4F" d="M68.545,58.103c-2.304-1.699-4.953-3.056-7.846-3.982c-0.554-0.772-1.025-1.632-1.397-2.562
					c2.792-1.916,4.854-5.351,5.302-9.444c0.238-2.176-0.012-4.268-0.642-6.123c1.218-0.675,2.573-1.055,4.001-1.055
					c5.309,0,9.61,5.192,9.61,11.595C77.573,52.699,73.581,57.738,68.545,58.103z"/>
				<path fill="#5F5A4F" d="M68.291,57.919C79.175,58.084,88.03,65.561,88.771,75H78.635C78.099,68.027,74.157,61.894,68.291,57.919
					z"/>
			</g>
		</g>
	</g>
</g>
<g id="language" display="none">
	<g display="inline">
		<g>
			<rect fill="#5E584D" width="100" height="100"/>
			<g filter="url(#AI_Shadow_1)">
				<rect x="9.895" y="9.815" fill="#F0E9DF" width="80.208" height="79.435"/>
			</g>
			<rect x="5.784" y="5.744" fill="#F0E9DF" width="88.429" height="87.577"/>
		</g>
	</g>
	<g display="inline">
		<path d="M45.659,26.644c0.545-0.791,1.395-1.903,3.498-1.589c2.127,0.317,13.654,3.687,24.008,9.857
			c1.235,1.02,0.564,2.422,0.401,2.709c-0.096,0.165-10.12,19.113-31.405,29.567c-2.54,1.247-3.473,3.527-2.702,4.77
			c0.556,0.964,2.159,1.485,8.154-1.479c7.37-3.365,28.592-10.287,35.728-13.308c1.331-0.393,2.002,1.962,1.113,2.386
			c-10.696,4.087-21.306,6.836-39.748,14.625c-2.545,1.273-5.66,1.258-9.729-1.47c-2.521-1.689-15.219-9.046-18.891-12.839
			c-1.117-1.155-1.711-4.712,0.955-6.359C19.945,51.718,31.608,47.015,45.659,26.644z"/>
		<path opacity="0.23" fill="#707070" d="M73.877,36.634c-0.052,0.469-0.234,0.852-0.311,0.986
			c-0.096,0.165-10.12,19.113-31.405,29.567c-2.54,1.247-3.473,3.527-2.702,4.77c0.556,0.964,2.159,1.485,8.154-1.479
			c7.37-3.365,28.592-10.287,35.728-13.308c0.176-0.052,0.339-0.054,0.489-0.021c0,0-0.021-1.429-2.01-2.755
			c-0.402-0.271,1.302-2.134-0.783-5.516c-0.273-1.187,0.108-3.163-3.136-4.481c-0.021-1.151-0.043-3.021-2.614-4.165
			c-0.041-1.374,0.326-2.771-1.405-3.599C73.88,36.634,73.878,36.635,73.877,36.634z"/>
		<g>
			<path fill="#D6D3D2" d="M77.901,44.398C60.4,61.613,48.028,67.844,42.961,70.079c-0.661,0.334-1.239,0.587-1.694,0.725
				c0,0,22.958-7.361,39.771-21.924C80.878,47.806,80.907,45.716,77.901,44.398z"/>
			<g>
				<path fill="#7A7468" d="M80.958,48.879c-16.812,14.563-39.77,21.924-39.77,21.924s15.181-3.225,40.554-16.408
					C81.946,53.023,82.151,49.85,80.958,48.879z"/>
			</g>
			<path fill="#7A7468" d="M75.287,40.233c0,0-14.166,20.197-34.021,30.571c3.398-1.431,16.687-6.783,36.635-26.406
				C77.842,43.395,77.853,41.386,75.287,40.233z"/>
		</g>
		<path fill="#5E584D" d="M45.659,26.644c0.545-0.791,1.395-1.903,3.498-1.589c2.127,0.317,13.654,3.687,24.008,9.857
			c1.235,1.02,0.564,2.422,0.401,2.709c-0.096,0.165-10.12,19.113-31.405,29.567c-2.54,1.247-3.473,3.527-2.702,4.77
			c0.556,0.964,2.159,1.485,8.154-1.479c7.37-3.365,28.592-10.287,35.728-13.308c1.331-0.393,2.002,1.962,1.113,2.386
			c-10.696,4.087-21.306,6.836-39.748,14.625c-2.545,1.273-5.66,1.258-9.729-1.47c-2.521-1.689-15.219-9.046-18.891-12.839
			c-1.117-1.155-1.711-4.712,0.955-6.359C19.945,51.718,31.608,47.015,45.659,26.644z"/>
		<path fill="#7A7468" d="M37.274,71.776c-0.387-0.215-0.781-0.456-1.184-0.726c-0.613-0.411-1.752-1.112-3.194-2
			c-4.445-2.736-12.722-7.83-15.373-10.568c-0.148-0.162-0.475-0.939-0.355-1.809c0.09-0.652,0.393-1.13,0.926-1.459
			c0.31-0.191,0.728-0.418,1.243-0.698c4.566-2.488,15.262-8.314,27.969-26.737C47.729,27.166,47.92,27,48.46,27
			c0.124,0,0.258,0.011,0.402,0.032c1.932,0.289,12.962,3.506,23.024,9.446c-0.012,0.038-0.036,0.111-0.062,0.159
			c-1.075,1.972-10.803,19.058-30.546,28.755c-1.972,0.968-3.392,2.528-3.895,4.281C37.177,70.397,37.142,71.114,37.274,71.776z"/>
		<g>
			<g>
				<path fill="#F0E9DF" d="M42.227,48.493l1.487-1.742l6.326,4.773l2.867-3.361l1.135,0.856l-4.353,5.103L42.227,48.493z"/>
			</g>
			<path fill-rule="evenodd" clip-rule="evenodd" fill="#F0E9DF" d="M55.636,50.239c-0.354,0.19-0.16-0.862-0.275-1.175
				c0.724-0.727,0.694-1.292,0.793-1.884c-1.674-0.759-1.284-2.174-2.609-2.662c-0.535-0.195-1.491,0.351-2.135,0.322
				c-0.635-0.029-1.481-0.349-2.415-0.304c-0.65,0.032-2.017,0.486-2.347,0.299c-0.651-0.368-0.271-1.529-0.553-2.211
				c-1.493,0.074-2.987,0.302-4.483,0.896c-0.573,0.773-1.144,1.186-1.715,1.465c-0.702,1.573-2.879,4.103-1.097,4.693
				c0.45-0.426,0.375-0.88,1.146-1.206c0.652,0.014,0.977,0.171,1.345,0.739c-1.167,1.713-1.334,3.577-1.596,4.869
				c-3.128-3.683-3.234-8.803,1.513-13.765c3.784-3.955,9.266-4.94,12.952-2.648C58.181,40.172,58.493,45.516,55.636,50.239z
				 M39.55,43.621c1.306-0.198,3.965-2.635,3.297-4C41.533,40.456,39.993,42.259,39.55,43.621z M48.604,39.411
				c0.773-0.342,0.545-0.832,0.861-1.42c0.43-0.209,1.233-0.468,1.427-0.856c-1.35,0.14-2.699-0.118-4.053,0.529
				C46.837,38.5,48.202,38.64,48.604,39.411z M50.098,38.883c0.136,0.802-0.402,1.729,0.126,2.304
				c1.311,1.424,4.153-1.11,5.691-0.676c-0.514-1.245-2.068-2.695-3.603-3.132C51.575,37.716,50.837,38.357,50.098,38.883z"/>
		</g>
	</g>
</g>
<g id="File_System" display="none">
	<g display="inline">
		<g>
			<rect fill="#5E584D" width="100" height="100"/>
			<g filter="url(#AI_Shadow_1)">
				<rect x="9.895" y="9.815" fill="#F0E9DF" width="80.208" height="79.435"/>
			</g>
			<rect x="5.784" y="5.744" fill="#F0E9DF" width="88.429" height="87.577"/>
		</g>
	</g>
	<g display="inline">
		<g>
			<polygon fill="#332D25" points="30.712,37.464 25,43.67 25,67.241 47.805,67.241 47.805,37.464 			"/>
			
				<line fill="none" stroke="#EFE8DE" stroke-width="0.25" stroke-miterlimit="10" x1="33.878" y1="43.191" x2="42.933" y2="43.191"/>
			<line fill="none" stroke="#EFE8DE" stroke-width="0.25" stroke-miterlimit="10" x1="29.919" y1="47.81" x2="42.933" y2="47.81"/>
			
				<line fill="none" stroke="#EFE8DE" stroke-width="0.25" stroke-miterlimit="10" x1="29.919" y1="52.008" x2="39.034" y2="52.008"/>
			
				<line fill="none" stroke="#EFE8DE" stroke-width="0.25" stroke-miterlimit="10" x1="29.919" y1="56.747" x2="42.933" y2="56.747"/>
			
				<line fill="none" stroke="#EFE8DE" stroke-width="0.25" stroke-miterlimit="10" x1="29.919" y1="61.003" x2="39.034" y2="61.003"/>
			<polygon fill="#84786A" points="25,43.67 30.706,43.67 30.706,37.464 			"/>
		</g>
		<g>
			<path fill="#60584D" d="M75,68.862c0,1.131-0.916,2.038-2.039,2.038H62.195c-1.121,0-2.037-0.907-2.037-2.038V31.699
				c0-1.128,0.916-2.04,2.037-2.04h10.766c1.123,0,2.039,0.911,2.039,2.04V68.862z"/>
			<path fill="#D7D4D3" d="M67.579,59.116c-1.767,0-3.2,1.433-3.2,3.202c0,1.769,1.434,3.202,3.2,3.202
				c1.766,0,3.199-1.434,3.199-3.202C70.778,60.549,69.345,59.116,67.579,59.116z M67.579,63.857c-0.851,0-1.54-0.69-1.54-1.539
				c0-0.848,0.689-1.539,1.54-1.539c0.85,0,1.539,0.691,1.539,1.539C69.118,63.167,68.429,63.857,67.579,63.857z"/>
			<path fill="#D7D4D3" d="M72.316,51.46c0,0.562-0.582,1.016-1.306,1.016h-6.864c-0.725,0-1.305-0.454-1.305-1.016V32.911
				c0-0.562,0.58-1.013,1.305-1.013h6.864c0.724,0,1.306,0.452,1.306,1.013V51.46z"/>
			<g>
				<rect x="64.88" y="35.834" fill="#60584D" width="5.397" height="1.969"/>
				<rect x="64.88" y="39.682" fill="#60584D" width="5.397" height="1.969"/>
			</g>
			<circle fill="#60584D" cx="67.41" cy="50.382" r="0.963"/>
			<path fill="none" stroke="#C9C4BD" stroke-width="0.5" stroke-linecap="round" stroke-miterlimit="10" d="M67.484,50.678
				c0,0-2.369,4.516,0,11.698"/>
		</g>
		<g>
			<g>
				<path fill="#60584D" d="M57.221,69.055c-0.106,1.125-1.104,1.942-2.222,1.837L44.281,69.88
					c-1.117-0.105-1.943-1.096-1.837-2.222l3.493-36.999c0.106-1.124,1.104-1.945,2.22-1.839l10.719,1.012
					c1.117,0.105,1.944,1.098,1.838,2.222L57.221,69.055z"/>
				<path fill="#D7D4D3" d="M50.749,58.654c-1.759-0.168-3.32,1.124-3.487,2.886c-0.166,1.761,1.127,3.323,2.885,3.489
					c1.759,0.166,3.32-1.127,3.486-2.888C53.798,60.381,52.506,58.819,50.749,58.654z M50.303,63.374
					c-0.847-0.08-1.468-0.832-1.389-1.678c0.08-0.844,0.832-1.468,1.678-1.388c0.847,0.08,1.468,0.833,1.388,1.677
					C51.899,62.831,51.148,63.453,50.303,63.374z"/>
				<path fill="#D7D4D3" d="M56.185,51.477c-0.052,0.559-0.675,0.956-1.396,0.888l-6.834-0.645
					c-0.721-0.068-1.256-0.575-1.203-1.135l1.744-18.466c0.052-0.559,0.672-0.954,1.394-0.886l6.834,0.645
					c0.72,0.068,1.257,0.572,1.204,1.132L56.185,51.477z"/>
				<g>
					
						<rect x="50.145" y="35.469" transform="matrix(0.9956 0.094 -0.094 0.9956 3.66 -4.8052)" fill="#60584D" width="5.398" height="1.969"/>
					
						<rect x="49.783" y="39.3" transform="matrix(0.9956 0.0941 -0.0941 0.9956 4.0229 -4.759)" fill="#60584D" width="5.397" height="1.969"/>
				</g>
				<circle fill="#60584D" cx="51.402" cy="49.942" r="0.963"/>
				<path fill="none" stroke="#C9C4BD" stroke-width="0.5" stroke-linecap="round" stroke-miterlimit="10" d="M51.447,50.243
					c0,0-2.783,4.273-1.1,11.646"/>
			</g>
		</g>
	</g>
</g>
<g id="FTP" display="none">
	<g display="inline">
		<g>
			<rect fill="#5E584D" width="100" height="100"/>
			<g filter="url(#AI_Shadow_1)">
				<rect x="9.895" y="9.815" fill="#F0E9DF" width="80.208" height="79.435"/>
			</g>
			<rect x="5.784" y="5.744" fill="#F0E9DF" width="88.429" height="87.577"/>
		</g>
	</g>
	<g display="inline">
		<path fill="#60584D" d="M31.569,36.834c-3.962,4.05-6.423,9.581-6.423,15.698C25.146,64.941,35.205,75,47.616,75
			c6.174,0,11.758-2.495,15.819-6.522L31.569,36.834z"/>
		<path fill="#60584D" d="M56.814,38.912c-2.315,0-4.19,1.875-4.19,4.19c0,0.611,0.146,1.184,0.383,1.708L47.9,49.913l2.508,2.501
			l5.335-5.339c0.353,0.095,0.692,0.217,1.071,0.217c2.314,0,4.19-1.875,4.19-4.19C61.005,40.788,59.129,38.912,56.814,38.912z"/>
		<path fill="none" stroke="#60584D" stroke-width="0.5" stroke-miterlimit="10" d="M55.648,34.37c0,0,8.967-0.585,10.187,10.185"/>
		<path fill="none" stroke="#60584D" stroke-width="0.5" stroke-miterlimit="10" d="M55.37,29.4c0,0,13.464-0.88,15.297,15.294"/>
		<path fill="none" stroke="#60584D" stroke-width="0.5" stroke-miterlimit="10" d="M55.605,25.011c0,0,16.942-1.108,19.248,19.24"
			/>
	</g>
</g>
<g id="FTP_1_" display="none">
	<g display="inline">
		<g>
			<rect fill="#5E584D" width="100" height="100"/>
			<g filter="url(#AI_Shadow_1)">
				<rect x="9.895" y="9.815" fill="#F0E9DF" width="80.208" height="79.435"/>
			</g>
			<rect x="5.784" y="5.744" fill="#F0E9DF" width="88.429" height="87.577"/>
		</g>
	</g>
	<g display="inline">
		<path fill="#60584D" d="M30.748,34.417c0.062-0.077,0.123-0.155,0.186-0.231C30.871,34.262,30.81,34.34,30.748,34.417z"/>
		<path opacity="0.26" fill="#60584D" d="M30.748,34.417c-3.471,4.278-5.634,9.644-5.634,15.583c0,0.341,0.097,0.646,0.107,0.987
			c0.005-0.011,0.012-0.022,0.017-0.033c-0.011-0.306-0.023-0.612-0.023-0.921C25.214,44.114,27.29,38.682,30.748,34.417z"/>
		<path opacity="0.26" fill="#60584D" d="M31.394,33.616c-0.161,0.184-0.304,0.382-0.46,0.57c0.152-0.183,0.31-0.36,0.466-0.538
			C31.398,33.638,31.396,33.627,31.394,33.616z"/>
		<path fill="#60584D" d="M31.399,33.648c-0.156,0.178-0.314,0.355-0.466,0.538c-0.063,0.076-0.124,0.154-0.186,0.231
			c-3.458,4.265-5.533,9.697-5.533,15.616c0,0.309,0.012,0.615,0.023,0.921c1.995-4.06,4.592-7.805,7.709-11.137
			C32.304,37.808,31.751,35.759,31.399,33.648z"/>
		<path opacity="0.26" fill="#60584D" d="M31.399,33.648c-0.156,0.178-0.314,0.355-0.466,0.538
			c-0.063,0.076-0.124,0.154-0.186,0.231c-3.458,4.265-5.533,9.697-5.533,15.616c0,0.309,0.012,0.615,0.023,0.921
			c1.995-4.06,4.592-7.805,7.709-11.137C32.304,37.808,31.751,35.759,31.399,33.648z"/>
		<path opacity="0.26" fill="#60584D" d="M25.771,55.582c0.466,1.988,1.188,3.871,2.108,5.637c-0.911-1.801-1.608-3.727-2.06-5.746
			C25.804,55.51,25.787,55.545,25.771,55.582z"/>
		<path fill="#60584D" d="M33.327,68.097c0.159,0,0.307-0.018,0.466-0.023c0.096-0.896,0.277-1.77,0.437-2.654
			c-0.636-0.499-1.066-1.236-1.066-2.11c0-1.322,0.959-2.371,2.207-2.621c0.93-2.995,2.167-5.883,3.716-8.6
			c-2.105-2.928-3.807-6.104-5.14-9.445c-3.428,3.805-6.156,8.141-8.126,12.83c0.452,2.02,1.149,3.945,2.06,5.746
			c1.341,2.576,3.114,4.896,5.221,6.872C33.175,68.091,33.248,68.097,33.327,68.097z"/>
		<path opacity="0.26" fill="#60584D" d="M33.327,68.097c0.159,0,0.307-0.018,0.466-0.023c0.096-0.896,0.277-1.77,0.437-2.654
			c-0.636-0.499-1.066-1.236-1.066-2.11c0-1.322,0.959-2.371,2.207-2.621c0.93-2.995,2.167-5.883,3.716-8.6
			c-2.105-2.928-3.807-6.104-5.14-9.445c-3.428,3.805-6.156,8.141-8.126,12.83c0.452,2.02,1.149,3.945,2.06,5.746
			c1.341,2.576,3.114,4.896,5.221,6.872C33.175,68.091,33.248,68.097,33.327,68.097z"/>
		<path fill="#60584D" d="M43.572,45.598c-0.062-0.232-0.142-0.459-0.142-0.709c0-0.244,0.08-0.459,0.137-0.687
			c-2.354-1.497-4.437-3.165-6.195-4.992c-0.544,0.499-1.044,1.027-1.565,1.543c1.26,3.098,2.831,6.059,4.748,8.805
			C41.474,48.179,42.506,46.874,43.572,45.598z"/>
		<path opacity="0.26" fill="#60584D" d="M43.572,45.598c-0.062-0.232-0.142-0.459-0.142-0.709c0-0.244,0.08-0.459,0.137-0.687
			c-2.354-1.497-4.437-3.165-6.195-4.992c-0.544,0.499-1.044,1.027-1.565,1.543c1.26,3.098,2.831,6.059,4.748,8.805
			C41.474,48.179,42.506,46.874,43.572,45.598z"/>
		<path fill="#60584D" d="M34.763,37.974c0.272-0.262,0.521-0.533,0.8-0.795c-0.646-0.828-1.254-1.667-1.775-2.547
			C34.06,35.767,34.405,36.873,34.763,37.974z"/>
		<path opacity="0.26" fill="#60584D" d="M34.763,37.974c0.272-0.262,0.521-0.533,0.8-0.795c-0.646-0.828-1.254-1.667-1.775-2.547
			C34.06,35.767,34.405,36.873,34.763,37.974z"/>
		<path fill="#60584D" d="M62.787,58.725c0-1.497,1.214-2.717,2.717-2.717c0.414,0,0.8,0.107,1.146,0.277
			c1.736-1.429,3.398-2.915,4.901-4.549C62.775,51.73,54.76,49.824,48.14,46.71c-0.5,0.544-1.197,0.896-1.991,0.896
			c-0.313,0-0.607-0.08-0.885-0.176c-1.106,1.372-2.207,2.751-3.138,4.237c3.631,4.617,8.237,8.475,13.428,11.59
			c2.581-1.186,5.004-2.599,7.307-4.153C62.844,58.975,62.787,58.861,62.787,58.725z"/>
		<path opacity="0.26" fill="#60584D" d="M62.787,58.725c0-1.497,1.214-2.717,2.717-2.717c0.414,0,0.8,0.107,1.146,0.277
			c1.736-1.429,3.398-2.915,4.901-4.549C62.775,51.73,54.76,49.824,48.14,46.71c-0.5,0.544-1.197,0.896-1.991,0.896
			c-0.313,0-0.607-0.08-0.885-0.176c-1.106,1.372-2.207,2.751-3.138,4.237c3.631,4.617,8.237,8.475,13.428,11.59
			c2.581-1.186,5.004-2.599,7.307-4.153C62.844,58.975,62.787,58.861,62.787,58.725z"/>
		<path opacity="0.26" fill="#60584D" d="M74.797,51.604c-0.415,6.64-3.436,12.573-8.058,16.783
			c0.027,0.008,0.054,0.019,0.081,0.027c4.606-4.231,7.636-10.16,8.066-16.814C74.856,51.602,74.827,51.602,74.797,51.604z"/>
		<path fill="#60584D" d="M74.797,51.604c-0.208,0.009-0.417,0.015-0.625,0.024c-1.821,2.275-3.892,4.352-6.115,6.28
			c0.085,0.261,0.165,0.527,0.165,0.816c0,1.509-1.215,2.724-2.718,2.724c-0.527,0-0.993-0.193-1.407-0.448
			c-1.917,1.35-3.902,2.62-6.03,3.704c2.762,1.445,5.618,2.731,8.673,3.683C71.361,64.177,74.382,58.243,74.797,51.604z"/>
		<path opacity="0.26" fill="#60584D" d="M74.797,51.604c-0.208,0.009-0.417,0.015-0.625,0.024c-1.821,2.275-3.892,4.352-6.115,6.28
			c0.085,0.261,0.165,0.527,0.165,0.816c0,1.509-1.215,2.724-2.718,2.724c-0.527,0-0.993-0.193-1.407-0.448
			c-1.917,1.35-3.902,2.62-6.03,3.704c2.762,1.445,5.618,2.731,8.673,3.683C71.361,64.177,74.382,58.243,74.797,51.604z"/>
		<path fill="#60584D" d="M40.771,54.221c-1.22,2.28-2.201,4.675-2.99,7.147c0.5,0.494,0.817,1.181,0.817,1.94
			c0,1.208-0.8,2.201-1.889,2.553c-0.143,0.709-0.397,1.384-0.5,2.104c5.758-0.301,11.261-1.458,16.332-3.403
			C48.055,61.709,44.038,58.254,40.771,54.221z"/>
		<path opacity="0.26" fill="#60584D" d="M40.771,54.221c-1.22,2.28-2.201,4.675-2.99,7.147c0.5,0.494,0.817,1.181,0.817,1.94
			c0,1.208-0.8,2.201-1.889,2.553c-0.143,0.709-0.397,1.384-0.5,2.104c5.758-0.301,11.261-1.458,16.332-3.403
			C48.055,61.709,44.038,58.254,40.771,54.221z"/>
		<path opacity="0.26" fill="#60584D" d="M35.885,70.42c-0.003,0.024-0.007,0.05-0.01,0.076c4.033,2.803,8.917,4.465,14.204,4.465
			c5.412,0,10.348-1.793,14.421-4.72c-0.016-0.005-0.03-0.011-0.045-0.017c-4.066,2.909-9.042,4.627-14.422,4.627
			C44.773,74.852,39.899,73.211,35.885,70.42z"/>
		<path fill="#60584D" d="M35.892,70.365c-0.002,0.02-0.004,0.037-0.007,0.055c4.014,2.791,8.888,4.432,14.148,4.432
			c5.38,0,10.356-1.718,14.422-4.627c-3.308-1.065-6.385-2.533-9.332-4.171C49.24,68.596,42.75,70.116,35.892,70.365z"/>
		<path opacity="0.26" fill="#60584D" d="M35.892,70.365c-0.002,0.02-0.004,0.037-0.007,0.055c4.014,2.791,8.888,4.432,14.148,4.432
			c5.38,0,10.356-1.718,14.422-4.627c-3.308-1.065-6.385-2.533-9.332-4.171C49.24,68.596,42.75,70.116,35.892,70.365z"/>
		<path opacity="0.26" fill="#60584D" d="M65.839,30.786c-1.69-1.391-3.591-2.49-5.594-3.421c-0.023,0.005-0.046,0.013-0.069,0.018
			c2.011,0.902,3.882,2.059,5.565,3.438C65.774,30.81,65.806,30.797,65.839,30.786z"/>
		<path fill="#60584D" d="M47.657,32.516c-0.153,0-0.25-0.136-0.392-0.164c-3.035,1.64-5.899,3.512-8.486,5.685
			c1.668,1.696,3.653,3.245,5.843,4.663c0.437-0.313,0.947-0.527,1.526-0.527c0.198,0,0.368,0.067,0.55,0.107
			c5.229-5.078,11.697-9.067,19.043-11.458c-1.684-1.378-3.555-2.536-5.565-3.438c-3.819,0.896-7.439,2.222-10.845,3.874
			C49.03,31.954,48.469,32.516,47.657,32.516z"/>
		<path opacity="0.26" fill="#60584D" d="M47.657,32.516c-0.153,0-0.25-0.136-0.392-0.164c-3.035,1.64-5.899,3.512-8.486,5.685
			c1.668,1.696,3.653,3.245,5.843,4.663c0.437-0.313,0.947-0.527,1.526-0.527c0.198,0,0.368,0.067,0.55,0.107
			c5.229-5.078,11.697-9.067,19.043-11.458c-1.684-1.378-3.555-2.536-5.565-3.438c-3.819,0.896-7.439,2.222-10.845,3.874
			C49.03,31.954,48.469,32.516,47.657,32.516z"/>
		<path opacity="0.26" fill="#60584D" d="M55.764,25.887c0.052-0.015,0.102-0.033,0.153-0.048c-1.878-0.471-3.813-0.8-5.838-0.8
			c-6.183,0-11.771,2.326-16.133,6.053c0.005,0.012,0.012,0.023,0.017,0.035c4.331-3.685,9.938-5.912,16.069-5.912
			C52.006,25.215,53.924,25.452,55.764,25.887z"/>
		<path fill="#60584D" d="M45.967,29.89c0.289-0.727,0.862-1.311,1.69-1.311c0.227,0,0.374,0.17,0.573,0.238
			c2.415-1.141,4.907-2.158,7.533-2.93c-1.84-0.435-3.758-0.672-5.731-0.672c-6.131,0-11.739,2.228-16.069,5.912
			c0.743,1.705,1.824,3.3,3.051,4.838C39.743,33.65,42.744,31.614,45.967,29.89z"/>
		<path opacity="0.26" fill="#60584D" d="M45.967,29.89c0.289-0.727,0.862-1.311,1.69-1.311c0.227,0,0.374,0.17,0.573,0.238
			c2.415-1.141,4.907-2.158,7.533-2.93c-1.84-0.435-3.758-0.672-5.731-0.672c-6.131,0-11.739,2.228-16.069,5.912
			c0.743,1.705,1.824,3.3,3.051,4.838C39.743,33.65,42.744,31.614,45.967,29.89z"/>
		<path opacity="0.26" fill="#60584D" d="M74.753,47.883c0.021-0.028,0.044-0.055,0.065-0.084
			c-0.55-6.132-3.205-11.646-7.386-15.702c-0.063,0.021-0.122,0.047-0.185,0.068C71.448,36.213,74.224,41.726,74.753,47.883z"/>
		<path fill="#60584D" d="M48.865,44.889c0,0.074-0.039,0.142-0.045,0.216c6.683,3.284,14.874,5.298,23.849,5.35
			c0.72-0.841,1.427-1.684,2.084-2.571c-0.529-6.157-3.305-11.67-7.505-15.718c-7.212,2.468-13.56,6.471-18.678,11.544
			C48.746,44.066,48.865,44.463,48.865,44.889z"/>
		<path opacity="0.26" fill="#60584D" d="M48.865,44.889c0,0.074-0.039,0.142-0.045,0.216c6.683,3.284,14.874,5.298,23.849,5.35
			c0.72-0.841,1.427-1.684,2.084-2.571c-0.529-6.157-3.305-11.67-7.505-15.718c-7.212,2.468-13.56,6.471-18.678,11.544
			C48.746,44.066,48.865,44.463,48.865,44.889z"/>
	</g>
</g>
<g id="FTP_2_" display="none">
	<g display="inline">
		<g>
			<rect fill="#5E584D" width="100" height="100"/>
			<g filter="url(#AI_Shadow_1)">
				<rect x="9.895" y="9.815" fill="#F0E9DF" width="80.208" height="79.435"/>
			</g>
			<rect x="5.784" y="5.744" fill="#F0E9DF" width="88.429" height="87.577"/>
		</g>
	</g>
	<g display="inline">
		<g>
			<path fill="#625A4E" d="M53.139,49.844c0.033-0.041,0.066-0.078,0.1-0.116C53.205,49.766,53.172,49.803,53.139,49.844z"/>
			<path opacity="0.26" fill="#625A4E" d="M53.139,49.844c-1.811,2.239-2.948,5.044-2.948,8.143c0,0.182,0.054,0.343,0.067,0.52
				c0,0,0-0.008,0-0.017c0-0.16,0-0.321,0-0.486C50.258,54.907,51.338,52.074,53.139,49.844z"/>
			<path opacity="0.26" fill="#625A4E" d="M53.479,49.423c-0.076,0.099-0.164,0.198-0.24,0.305c0.076-0.106,0.164-0.193,0.25-0.288
				C53.488,49.439,53.479,49.439,53.479,49.423z"/>
			<path fill="#625A4E" d="M53.488,49.439c-0.086,0.095-0.174,0.182-0.25,0.288c-0.033,0.038-0.066,0.075-0.1,0.116
				c-1.801,2.23-2.88,5.063-2.88,8.159c0,0.165,0,0.326,0,0.486c1.046-2.125,2.402-4.076,4.041-5.821
				C53.949,51.613,53.664,50.543,53.488,49.439z"/>
			<path opacity="0.26" fill="#625A4E" d="M53.488,49.439c-0.086,0.095-0.174,0.182-0.25,0.288c-0.033,0.038-0.066,0.075-0.1,0.116
				c-1.801,2.23-2.88,5.063-2.88,8.159c0,0.165,0,0.326,0,0.486c1.046-2.125,2.402-4.076,4.041-5.821
				C53.949,51.613,53.664,50.543,53.488,49.439z"/>
			<path opacity="0.26" fill="#625A4E" d="M50.541,60.91c0.239,1.038,0.633,2.018,1.092,2.947c-0.459-0.946-0.83-1.951-1.072-3.004
				C50.561,60.873,50.541,60.89,50.541,60.91z"/>
			<path fill="#625A4E" d="M54.494,67.456c0.078,0,0.154-0.013,0.24-0.017c0.043-0.469,0.143-0.93,0.23-1.392
				c-0.34-0.259-0.559-0.65-0.559-1.104c0-0.691,0.502-1.234,1.158-1.366c0.48-1.564,1.125-3.08,1.936-4.496
				c-1.104-1.531-1.979-3.187-2.689-4.937c-1.779,1.988-3.221,4.253-4.25,6.708c0.242,1.053,0.613,2.058,1.072,3.004
				c0.709,1.347,1.637,2.562,2.73,3.591C54.406,67.448,54.451,67.456,54.494,67.456z"/>
			<path opacity="0.26" fill="#625A4E" d="M54.494,67.456c0.078,0,0.154-0.013,0.24-0.017c0.043-0.469,0.143-0.93,0.23-1.392
				c-0.34-0.259-0.559-0.65-0.559-1.104c0-0.691,0.502-1.234,1.158-1.366c0.48-1.564,1.125-3.08,1.936-4.496
				c-1.104-1.531-1.979-3.187-2.689-4.937c-1.779,1.988-3.221,4.253-4.25,6.708c0.242,1.053,0.613,2.058,1.072,3.004
				c0.709,1.347,1.637,2.562,2.73,3.591C54.406,67.448,54.451,67.456,54.494,67.456z"/>
			<path fill="#625A4E" d="M59.846,55.689c-0.021-0.122-0.076-0.238-0.076-0.37c0-0.124,0.055-0.238,0.076-0.363
				c-1.232-0.777-2.316-1.646-3.23-2.609c-0.285,0.263-0.559,0.535-0.832,0.806c0.656,1.624,1.486,3.172,2.49,4.608
				C58.754,57.032,59.289,56.348,59.846,55.689z"/>
			<path opacity="0.26" fill="#625A4E" d="M59.846,55.689c-0.021-0.122-0.076-0.238-0.076-0.37c0-0.124,0.055-0.238,0.076-0.363
				c-1.232-0.777-2.316-1.646-3.23-2.609c-0.285,0.263-0.559,0.535-0.832,0.806c0.656,1.624,1.486,3.172,2.49,4.608
				C58.754,57.032,59.289,56.348,59.846,55.689z"/>
			<path fill="#625A4E" d="M55.236,51.704c0.152-0.14,0.285-0.279,0.416-0.419c-0.326-0.429-0.656-0.87-0.918-1.334
				C54.867,50.552,55.061,51.124,55.236,51.704z"/>
			<path opacity="0.26" fill="#625A4E" d="M55.236,51.704c0.152-0.14,0.285-0.279,0.416-0.419c-0.326-0.429-0.656-0.87-0.918-1.334
				C54.867,50.552,55.061,51.124,55.236,51.704z"/>
			<path fill="#625A4E" d="M69.895,62.549c0-0.782,0.635-1.416,1.42-1.416c0.219,0,0.414,0.049,0.59,0.14
				c0.918-0.749,1.781-1.52,2.557-2.376c-4.576,0-8.771-0.999-12.234-2.626c-0.26,0.284-0.621,0.469-1.025,0.469
				c-0.176,0-0.326-0.045-0.471-0.094c-0.578,0.724-1.145,1.437-1.639,2.219c1.891,2.408,4.307,4.425,7.025,6.047
				c1.344-0.612,2.609-1.357,3.822-2.157C69.916,62.681,69.895,62.623,69.895,62.549z"/>
			<path opacity="0.26" fill="#625A4E" d="M69.895,62.549c0-0.782,0.635-1.416,1.42-1.416c0.219,0,0.414,0.049,0.59,0.14
				c0.918-0.749,1.781-1.52,2.557-2.376c-4.576,0-8.771-0.999-12.234-2.626c-0.26,0.284-0.621,0.469-1.025,0.469
				c-0.176,0-0.326-0.045-0.471-0.094c-0.578,0.724-1.145,1.437-1.639,2.219c1.891,2.408,4.307,4.425,7.025,6.047
				c1.344-0.612,2.609-1.357,3.822-2.157C69.916,62.681,69.895,62.623,69.895,62.549z"/>
			<path opacity="0.26" fill="#625A4E" d="M76.164,58.827c-0.219,3.475-1.791,6.57-4.203,8.769c0.01,0.009,0.02,0.009,0.031,0.018
				c2.404-2.216,3.998-5.312,4.227-8.786C76.209,58.827,76.188,58.827,76.164,58.827z"/>
			<path fill="#625A4E" d="M76.164,58.827c-0.109,0.004-0.219,0.009-0.326,0.016c-0.949,1.191-2.033,2.272-3.189,3.282
				c0.043,0.137,0.086,0.271,0.086,0.424c0,0.791-0.633,1.42-1.42,1.42c-0.281,0-0.523-0.094-0.742-0.227
				c-1.004,0.701-2.031,1.362-3.156,1.931c1.453,0.754,2.938,1.429,4.545,1.923C74.373,65.397,75.945,62.302,76.164,58.827z"/>
			<path opacity="0.26" fill="#625A4E" d="M76.164,58.827c-0.109,0.004-0.219,0.009-0.326,0.016
				c-0.949,1.191-2.033,2.272-3.189,3.282c0.043,0.137,0.086,0.271,0.086,0.424c0,0.791-0.633,1.42-1.42,1.42
				c-0.281,0-0.523-0.094-0.742-0.227c-1.004,0.701-2.031,1.362-3.156,1.931c1.453,0.754,2.938,1.429,4.545,1.923
				C74.373,65.397,75.945,62.302,76.164,58.827z"/>
			<path fill="#625A4E" d="M58.383,60.193c-0.633,1.187-1.158,2.446-1.574,3.738c0.264,0.256,0.438,0.618,0.438,1.013
				c0,0.635-0.412,1.152-0.982,1.329c-0.086,0.376-0.207,0.73-0.262,1.109c3.016-0.157,5.875-0.766,8.531-1.787
				C62.186,64.113,60.086,62.302,58.383,60.193z"/>
			<path opacity="0.26" fill="#625A4E" d="M58.383,60.193c-0.633,1.187-1.158,2.446-1.574,3.738
				c0.264,0.256,0.438,0.618,0.438,1.013c0,0.635-0.412,1.152-0.982,1.329c-0.086,0.376-0.207,0.73-0.262,1.109
				c3.016-0.157,5.875-0.766,8.531-1.787C62.186,64.113,60.086,62.302,58.383,60.193z"/>
			<path opacity="0.26" fill="#625A4E" d="M55.826,68.658c0,0.017,0,0.024,0,0.042c2.098,1.474,4.654,2.338,7.416,2.338
				c2.83,0,5.408-0.936,7.549-2.463c-0.023-0.007-0.023-0.015-0.023-0.015c-2.127,1.522-4.738,2.421-7.545,2.421
				C60.48,70.981,57.924,70.125,55.826,68.658z"/>
			<path fill="#625A4E" d="M55.826,68.634c0,0.009,0,0.024,0,0.024c2.098,1.467,4.654,2.323,7.396,2.323
				c2.807,0,5.418-0.898,7.545-2.421c-1.748-0.552-3.34-1.326-4.881-2.174C62.818,67.712,59.41,68.51,55.826,68.634z"/>
			<path opacity="0.26" fill="#625A4E" d="M55.826,68.634c0,0.009,0,0.024,0,0.024c2.098,1.467,4.654,2.323,7.396,2.323
				c2.807,0,5.418-0.898,7.545-2.421c-1.748-0.552-3.34-1.326-4.881-2.174C62.818,67.712,59.41,68.51,55.826,68.634z"/>
			<path opacity="0.26" fill="#625A4E" d="M71.49,47.945c-0.896-0.725-1.877-1.306-2.928-1.791
				c-0.021,0.009-0.021,0.009-0.031,0.017c1.037,0.465,2.02,1.069,2.895,1.791C71.447,47.957,71.459,47.949,71.49,47.945z"/>
			<path fill="#625A4E" d="M61.977,48.848c-0.076,0-0.119-0.071-0.207-0.083c-1.574,0.856-3.08,1.836-4.436,2.973
				c0.873,0.881,1.924,1.696,3.059,2.437c0.229-0.163,0.492-0.279,0.809-0.279c0.098,0,0.184,0.037,0.283,0.058
				c2.73-2.652,6.105-4.738,9.941-5.99c-0.875-0.722-1.857-1.326-2.895-1.791c-2,0.465-3.902,1.16-5.668,2.021
				C62.697,48.56,62.402,48.848,61.977,48.848z"/>
			<path opacity="0.26" fill="#625A4E" d="M61.977,48.848c-0.076,0-0.119-0.071-0.207-0.083c-1.574,0.856-3.08,1.836-4.436,2.973
				c0.873,0.881,1.924,1.696,3.059,2.437c0.229-0.163,0.492-0.279,0.809-0.279c0.098,0,0.184,0.037,0.283,0.058
				c2.73-2.652,6.105-4.738,9.941-5.99c-0.875-0.722-1.857-1.326-2.895-1.791c-2,0.465-3.902,1.16-5.668,2.021
				C62.697,48.56,62.402,48.848,61.977,48.848z"/>
			<path opacity="0.26" fill="#625A4E" d="M66.215,45.385c0.033-0.004,0.053-0.017,0.086-0.017
				c-0.982-0.252-1.998-0.424-3.059-0.424c-3.232,0-6.148,1.21-8.432,3.166c0.014,0.004,0.014,0.012,0.014,0.017
				c2.26-1.923,5.197-3.092,8.398-3.092C64.26,45.035,65.264,45.158,66.215,45.385z"/>
			<path fill="#625A4E" d="M61.092,47.477c0.154-0.376,0.459-0.68,0.885-0.68c0.119,0,0.197,0.082,0.307,0.115
				c1.256-0.593,2.564-1.12,3.932-1.527c-0.951-0.227-1.955-0.35-2.992-0.35c-3.201,0-6.139,1.169-8.398,3.092
				c0.393,0.889,0.959,1.725,1.592,2.523C57.836,49.448,59.41,48.387,61.092,47.477z"/>
			<path opacity="0.26" fill="#625A4E" d="M61.092,47.477c0.154-0.376,0.459-0.68,0.885-0.68c0.119,0,0.197,0.082,0.307,0.115
				c1.256-0.593,2.564-1.12,3.932-1.527c-0.951-0.227-1.955-0.35-2.992-0.35c-3.201,0-6.139,1.169-8.398,3.092
				c0.393,0.889,0.959,1.725,1.592,2.523C57.836,49.448,59.41,48.387,61.092,47.477z"/>
			<path opacity="0.26" fill="#625A4E" d="M76.143,56.885c0.012-0.018,0.021-0.034,0.045-0.043
				c-0.287-3.203-1.682-6.094-3.867-8.208c-0.033,0.007-0.066,0.023-0.098,0.032C74.418,50.773,75.859,53.664,76.143,56.885z"/>
			<path fill="#625A4E" d="M62.621,55.319c0,0.032-0.023,0.069-0.035,0.115c3.508,1.712,7.768,2.767,12.465,2.791
				c0.383-0.437,0.742-0.872,1.092-1.341c-0.283-3.221-1.725-6.111-3.92-8.219c-3.771,1.285-7.09,3.385-9.768,6.036
				C62.555,54.891,62.621,55.098,62.621,55.319z"/>
			<path opacity="0.26" fill="#625A4E" d="M62.621,55.319c0,0.032-0.023,0.069-0.035,0.115c3.508,1.712,7.768,2.767,12.465,2.791
				c0.383-0.437,0.742-0.872,1.092-1.341c-0.283-3.221-1.725-6.111-3.92-8.219c-3.771,1.285-7.09,3.385-9.768,6.036
				C62.555,54.891,62.621,55.098,62.621,55.319z"/>
		</g>
		<path fill="#625A4E" d="M56.984,44.079v-5.11l-9.829-10.728H23.781v43.518h31.374c-4.341-2.911-7.198-7.793-7.198-13.335
			C47.957,52.148,51.648,46.765,56.984,44.079z M44.579,60.572H31.121v-6.291h13.458V60.572z M48.071,47.118H30.596v-6.293h17.475
			V47.118z"/>
	</g>
</g>
<g id="Branch">
	<g>
		<g>
			<rect fill="#5E584D" width="100" height="100"/>
			<g filter="url(#AI_Shadow_1)">
				<rect x="9.895" y="9.815" fill="#F0E9DF" width="80.208" height="79.435"/>
			</g>
			<rect x="5.784" y="5.744" fill="#F0E9DF" width="88.429" height="87.577"/>
		</g>
	</g>
	<g>
		<path fill="#625A4E" d="M84.175,30.837c0-8.291-6.722-15.012-15.012-15.012c-8.291,0-15.012,6.722-15.012,15.012
			c0,1.735,0.31,3.395,0.851,4.945c-1.551-0.542-3.21-0.851-4.946-0.851c-5.965,0-11.103,3.489-13.523,8.529H24.127v12.289
			c-4.918,2.464-8.302,7.538-8.302,13.414c0,8.29,6.721,15.012,15.012,15.012c8.291,0,15.012-6.722,15.012-15.012
			c0-1.804-0.334-3.522-0.917-5.125c1.601,0.583,3.321,0.917,5.124,0.917c5.786,0,10.8-3.278,13.306-8.074h12.624V44.197
			C80.843,41.711,84.175,36.668,84.175,30.837z"/>
		<path fill="#FFFFFF" d="M69.163,20.375c-5.77,0-10.463,4.694-10.463,10.463c0,5.252,3.895,9.601,8.946,10.34v6.53h-7.372
			c-1.028-4.697-5.216-8.227-10.218-8.227c-4.974,0-9.14,3.493-10.196,8.151h-6.521h-4.852v4.851v6.493
			c-4.64,1.07-8.113,5.227-8.113,10.188c0,5.769,4.693,10.462,10.463,10.462c5.769,0,10.462-4.693,10.462-10.462
			c0-4.905-3.398-9.021-7.961-10.147v-6.533h6.58c1.139,4.544,5.246,7.923,10.138,7.923c4.866,0,8.953-3.342,10.119-7.847H72.31l0,0
			h0.188V40.746c4.137-1.397,7.127-5.307,7.127-9.908C79.625,25.068,74.932,20.375,69.163,20.375z M34.932,69.163
			c0,2.258-1.837,4.094-4.094,4.094c-2.258,0-4.094-1.836-4.094-4.094s1.836-4.094,4.094-4.094
			C33.095,65.069,34.932,66.905,34.932,69.163z M50.056,54.037c-2.257,0-4.094-1.837-4.094-4.094c0-2.258,1.836-4.094,4.094-4.094
			s4.095,1.836,4.095,4.094C54.151,52.2,52.313,54.037,50.056,54.037z M69.163,34.932c-2.259,0-4.094-1.837-4.094-4.094
			c0-2.258,1.835-4.094,4.094-4.094c2.257,0,4.094,1.836,4.094,4.094C73.257,33.095,71.42,34.932,69.163,34.932z"/>
	</g>
</g>
</svg>
