<?xml version="1.0" encoding="utf-8"?>
<!-- Generator: Adobe Illustrator 15.1.0, SVG Export Plug-In . SVG Version: 6.00 Build 0)  -->
<!DOCTYPE svg PUBLIC "-//W3C//DTD SVG 1.1//EN" "http://www.w3.org/Graphics/SVG/1.1/DTD/svg11.dtd">
<svg version="1.1" xmlns="http://www.w3.org/2000/svg" xmlns:xlink="http://www.w3.org/1999/xlink" x="0px" y="0px" width="100px"
	 height="100px" viewBox="0 0 100 100" enable-background="new 0 0 100 100" xml:space="preserve">
<filter  id="AI_Shadow_1" filterUnits="objectBoundingBox">
	<feGaussianBlur  in="SourceAlpha" result="blur" stdDeviation="2"></feGaussianBlur>
	<feOffset  dy="4" dx="4" in="blur" result="offsetBlurredAlpha"></feOffset>
	<feMerge>
		<feMergeNode  in="offsetBlurredAlpha"></feMergeNode>
		<feMergeNode  in="SourceGraphic"></feMergeNode>
	</feMerge>
</filter>
<g id="Template" display="none">
	<g display="inline">
		<rect fill="#1A1A1A" stroke="#070808" stroke-width="0.25" stroke-miterlimit="10" width="100" height="100"/>
		<rect x="1.5" y="1.5" fill="#F5F5F5" width="97" height="96.064"/>
		<g filter="url(#AI_Shadow_1)">
			<rect x="8.905" y="8.834" fill="#DD574B" width="82.187" height="81.396"/>
		</g>
		<rect x="5.784" y="5.744" fill="#8AA251" width="88.429" height="87.578"/>
	</g>
	<g display="inline">
		<g>
			<path fill="#6D7D4A" d="M27.108,22v60h49.785V22H27.108z"/>
			<g>
				<rect x="34.243" y="29.326" fill="#6D7D4A" width="35.513" height="12.747"/>
				<rect x="34.243" y="44.083" fill="#6D7D4A" width="22.683" height="30.591"/>
				<rect x="59.539" y="44.082" fill="#6D7D4A" width="10.217" height="30.592"/>
			</g>
		</g>
		<path fill="#D4DFD1" d="M25.18,20.088v60h49.784v-60H25.18z M70.056,75.386h-39.97V24.79h39.97V75.386z"/>
		<rect x="32.315" y="27.414" fill="#D4DFD1" width="35.513" height="12.747"/>
		<rect x="32.315" y="42.17" fill="#D4DFD1" width="22.682" height="30.591"/>
		<rect x="57.61" y="42.17" fill="#D4DFD1" width="10.218" height="30.592"/>
		<g>
			
				<line fill="none" stroke="#6D7D4A" stroke-width="0.5" stroke-linecap="round" stroke-miterlimit="10" x1="35" y1="45.833" x2="52.313" y2="45.833"/>
			
				<line fill="none" stroke="#6D7D4A" stroke-width="0.5" stroke-linecap="round" stroke-miterlimit="10" x1="35" y1="49" x2="50.072" y2="49"/>
			
				<line fill="none" stroke="#6D7D4A" stroke-width="0.5" stroke-linecap="round" stroke-miterlimit="10" x1="35" y1="52.167" x2="52.313" y2="52.167"/>
			
				<line fill="none" stroke="#6D7D4A" stroke-width="0.5" stroke-linecap="round" stroke-miterlimit="10" x1="35" y1="55.334" x2="50.217" y2="55.334"/>
			
				<line fill="none" stroke="#6D7D4A" stroke-width="0.5" stroke-linecap="round" stroke-miterlimit="10" x1="35" y1="58.5" x2="43.375" y2="58.5"/>
			
				<line fill="none" stroke="#6D7D4A" stroke-width="0.5" stroke-linecap="round" stroke-miterlimit="10" x1="35" y1="61.667" x2="50.217" y2="61.667"/>
			
				<line fill="none" stroke="#6D7D4A" stroke-width="0.5" stroke-linecap="round" stroke-miterlimit="10" x1="35" y1="64.834" x2="47.453" y2="64.834"/>
		</g>
	</g>
</g>
<g id="Entities" display="none">
	<g display="inline">
		<rect fill="#1A1A1A" stroke="#070808" stroke-width="0.25" stroke-miterlimit="10" width="100" height="100"/>
		<rect x="1.5" y="1.5" fill="#F5F5F5" width="97" height="96.064"/>
		<g filter="url(#AI_Shadow_1)">
			<rect x="8.905" y="8.834" fill="#DD574B" width="82.187" height="81.396"/>
		</g>
		<rect x="5.784" y="5.744" fill="#F39943" width="88.429" height="87.578"/>
		<g>
			<polygon fill="#CC7A2B" points="57.108,15.023 57.108,46.931 89.173,46.931 			"/>
			<polygon fill="#CC7A2B" points="46.892,15.023 46.892,46.931 14.827,46.931 			"/>
			<polygon fill="#CC7A2B" points="14.827,57.147 46.892,57.147 46.892,88.741 			"/>
			<polygon fill="#CC7A2B" points="57.108,57.147 89.173,57.147 57.344,88.977 			"/>
		</g>
		<g>
			<polygon fill="#F0E9DF" points="55.108,13.023 55.108,44.931 87.173,44.931 			"/>
			<polygon fill="#3FAA96" points="44.892,13.023 44.892,44.931 12.827,44.931 			"/>
			<polygon fill="#F0E9DF" points="12.827,55.147 44.892,55.147 44.892,86.741 			"/>
			<polygon fill="#EF4228" points="55.108,55.147 87.173,55.147 55.344,86.977 			"/>
		</g>
	</g>
</g>
<g id="Links" display="none">
	<g display="inline">
		<rect fill="#1A1A1A" stroke="#070808" stroke-width="0.25" stroke-miterlimit="10" width="100" height="100"/>
		<rect x="1.5" y="1.5" fill="#F5F5F5" width="97" height="96.064"/>
		<g filter="url(#AI_Shadow_1)">
			<rect x="8.905" y="8.834" fill="#DD574B" width="82.187" height="81.396"/>
		</g>
		<rect x="5.784" y="5.744" fill="#DD574C" width="88.429" height="87.578"/>
	</g>
	<g display="inline">
		<g>
			<path fill="#BB4136" d="M81.389,64.825L67.058,48.526c-2.375-2.701-6.607-2.86-9.454-0.358l-7.855,6.905
				c-2.846,2.503-3.229,6.722-0.855,9.421l14.331,16.301c2.374,2.7,6.606,2.86,9.453,0.358l7.855-6.907
				C83.377,71.745,83.764,67.526,81.389,64.825z M69.971,75.232c-1.822,1.603-4.536,1.502-6.059-0.229l-9.187-10.448
				c-1.522-1.732-1.275-4.436,0.549-6.039l5.036-4.428c1.822-1.603,4.536-1.502,6.06,0.229l9.186,10.448
				c1.523,1.731,1.274,4.436-0.55,6.038L69.971,75.232z"/>
			<path fill="#BB4136" d="M55.594,35.486L41.263,19.187c-2.375-2.702-6.608-2.86-9.454-0.359l-7.855,6.906
				c-2.846,2.503-3.23,6.72-0.855,9.421l14.331,16.3c2.374,2.7,6.606,2.86,9.453,0.356l7.855-6.906
				C57.584,42.406,57.967,38.187,55.594,35.486z M44.177,45.892c-1.824,1.604-4.537,1.503-6.061-0.229l-9.186-10.448
				c-1.522-1.732-1.275-4.437,0.549-6.04l5.036-4.427c1.824-1.603,4.537-1.501,6.059,0.23l9.186,10.448
				c1.524,1.732,1.275,4.436-0.548,6.039L44.177,45.892z"/>
			<path fill="#BB4136" d="M64.051,63.421c-1.647,1.45-4.16,1.288-5.606-0.358l-18.37-20.895c-1.449-1.648-1.288-4.159,0.361-5.609
				l0,0c1.648-1.448,4.16-1.287,5.608,0.361l18.369,20.894C65.861,59.461,65.699,61.973,64.051,63.421L64.051,63.421z"/>
		</g>
		<g>
			<g>
				<path fill="#8BA650" d="M78.809,64.924L64.476,48.625c-2.373-2.701-6.605-2.86-9.453-0.358l-7.854,6.906
					c-2.847,2.503-3.23,6.72-0.855,9.421l14.332,16.3c2.373,2.701,6.606,2.86,9.453,0.357l7.854-6.906
					C80.797,71.845,81.184,67.625,78.809,64.924z M67.392,75.33c-1.823,1.604-4.537,1.504-6.061-0.229l-9.186-10.447
					c-1.523-1.733-1.275-4.437,0.549-6.041l5.036-4.426c1.822-1.604,4.536-1.504,6.06,0.229l9.185,10.449
					c1.524,1.731,1.275,4.435-0.549,6.038L67.392,75.33z"/>
				<path fill="#45909E" d="M53.014,35.585L38.682,19.286c-2.375-2.702-6.608-2.86-9.454-0.359l-7.855,6.906
					c-2.846,2.503-3.23,6.721-0.855,9.422l14.331,16.301c2.374,2.698,6.606,2.858,9.453,0.356l7.855-6.906
					C55.004,42.505,55.387,38.286,53.014,35.585z M41.596,45.991c-1.824,1.604-4.537,1.503-6.06-0.229l-9.186-10.448
					c-1.523-1.732-1.275-4.436,0.548-6.04l5.036-4.427c1.823-1.603,4.537-1.502,6.06,0.23l9.186,10.448
					c1.523,1.733,1.275,4.436-0.548,6.039L41.596,45.991z"/>
			</g>
			<path fill="#F8AA3E" d="M61.47,63.52c-1.524,1.341-3.936,1.09-5.381-0.557L37.718,42.069c-1.448-1.647-1.388-4.07,0.136-5.411
				l0,0c1.524-1.34,3.935-1.089,5.383,0.558l18.37,20.893C63.056,59.757,62.994,62.182,61.47,63.52L61.47,63.52z"/>
		</g>
	</g>
</g>
<g id="Template_1_" display="none">
	<g display="inline">
		<g>
			<rect fill="#5E584D" width="100" height="100"/>
			<g filter="url(#AI_Shadow_1)">
				<rect x="9.895" y="9.815" fill="#F0E9DF" width="80.208" height="79.435"/>
			</g>
			<rect x="5.783" y="5.744" fill="#F0E9DF" width="88.43" height="87.578"/>
		</g>
		<g>
			<path fill="#5E584D" d="M29.256,25v50h41.487V25H29.256z M68.364,73.249H31.632V26.75h36.732V73.249z"/>
			<rect x="33.681" y="29.163" fill="#5E584D" width="32.637" height="11.714"/>
			<rect x="33.681" y="42.724" fill="#5E584D" width="20.844" height="28.114"/>
			<rect x="56.927" y="42.723" fill="#5E584D" width="9.392" height="28.115"/>
			<g>
				
					<line fill="none" stroke="#EFE8DE" stroke-width="0.5" stroke-linecap="round" stroke-miterlimit="10" x1="36.148" y1="46.09" x2="52.059" y2="46.09"/>
				
					<line fill="none" stroke="#EFE8DE" stroke-width="0.5" stroke-linecap="round" stroke-miterlimit="10" x1="36.148" y1="49" x2="50" y2="49"/>
				
					<line fill="none" stroke="#EFE8DE" stroke-width="0.5" stroke-linecap="round" stroke-miterlimit="10" x1="36.148" y1="51.91" x2="52.059" y2="51.91"/>
				
					<line fill="none" stroke="#EFE8DE" stroke-width="0.5" stroke-linecap="round" stroke-miterlimit="10" x1="36.148" y1="54.821" x2="50.133" y2="54.821"/>
				
					<line fill="none" stroke="#EFE8DE" stroke-width="0.5" stroke-linecap="round" stroke-miterlimit="10" x1="36.148" y1="57.73" x2="43.845" y2="57.73"/>
				
					<line fill="none" stroke="#EFE8DE" stroke-width="0.5" stroke-linecap="round" stroke-miterlimit="10" x1="36.148" y1="60.642" x2="50.133" y2="60.642"/>
				
					<line fill="none" stroke="#EFE8DE" stroke-width="0.5" stroke-linecap="round" stroke-miterlimit="10" x1="36.148" y1="63.552" x2="47.593" y2="63.552"/>
			</g>
		</g>
	</g>
</g>
<g id="Entities_1_" display="none">
	<g display="inline">
		<g>
			<rect fill="#5E584D" width="100" height="100"/>
			<g filter="url(#AI_Shadow_1)">
				<rect x="9.895" y="9.815" fill="#F0E9DF" width="80.208" height="79.435"/>
			</g>
			<rect x="5.784" y="5.744" fill="#F0E9DF" width="88.429" height="87.578"/>
		</g>
		<g>
			<polygon fill="#5E584D" points="53.454,25 53.454,46.573 75.133,46.573 			"/>
			<polygon fill="#5E584D" points="46.546,25 46.546,46.573 24.867,46.573 			"/>
			<polygon fill="#5E584D" points="24.867,53.48 46.546,53.48 46.546,74.841 			"/>
			<polygon fill="#5E584D" points="53.454,53.48 75.133,53.48 53.613,75 			"/>
		</g>
	</g>
</g>
<g id="Links_1_" display="none">
	<g display="inline">
		<g>
			<rect fill="#5E584D" width="100" height="100"/>
			<g filter="url(#AI_Shadow_1)">
				<rect x="9.895" y="9.815" fill="#F0E9DF" width="80.208" height="79.435"/>
			</g>
			<rect x="5.784" y="5.744" fill="#F0E9DF" width="88.429" height="87.578"/>
		</g>
		<g>
			<g>
				<g>
					<path fill="#5E584D" d="M72.121,61.259L61.243,48.888c-1.801-2.05-5.014-2.17-7.175-0.271l-5.962,5.241
						c-2.161,1.9-2.452,5.101-0.649,7.15L58.335,73.38c1.802,2.05,5.015,2.17,7.175,0.271l5.962-5.241
						C73.631,66.511,73.924,63.309,72.121,61.259z M69.299,64.528c-0.018,0.188-0.102,0.554-0.469,0.877l-5.961,5.241
						C62.519,70.954,62.162,71,61.981,71c-0.188,0-0.453-0.046-0.643-0.261L50.46,58.366c-0.337-0.383-0.205-1.072,0.287-1.505
						l5.961-5.241c0.35-0.307,0.707-0.353,0.889-0.353c0.188,0,0.451,0.045,0.641,0.26L69.117,63.9
						C69.296,64.104,69.314,64.354,69.299,64.528z"/>
					<path fill="#5E584D" d="M52.544,38.992L41.666,26.621c-1.803-2.05-5.016-2.17-7.175-0.272l-5.961,5.242
						c-2.161,1.899-2.452,5.101-0.649,7.151l10.877,12.371c1.802,2.048,5.014,2.17,7.174,0.271l5.963-5.241
						C54.054,44.244,54.345,41.042,52.544,38.992z M49.253,43.137l-5.964,5.242c-0.349,0.307-0.705,0.353-0.886,0.353
						c-0.188,0-0.453-0.045-0.644-0.261L30.883,36.1c-0.179-0.204-0.198-0.455-0.182-0.629c0.018-0.188,0.101-0.554,0.469-0.876
						l5.962-5.243C37.48,29.046,37.836,29,38.018,29c0.188,0,0.453,0.045,0.644,0.262L49.54,41.633
						C49.875,42.015,49.745,42.705,49.253,43.137z"/>
				</g>
				<path fill="#5E584D" d="M57.547,58.584c-0.829,0.729-2.254,0.465-3.177-0.585L42.629,44.644
					c-0.927-1.054-1.007-2.499-0.177-3.229l0,0c0.829-0.728,2.253-0.466,3.181,0.588l11.739,13.353
					C58.3,56.409,58.375,57.856,57.547,58.584L57.547,58.584z"/>
			</g>
		</g>
	</g>
</g>
<g id="Template_Repositinges" display="none">
	<g display="inline">
		<g>
			<rect fill="#5E584D" width="100" height="100"/>
			<g filter="url(#AI_Shadow_1)">
				<rect x="9.895" y="9.815" fill="#F0E9DF" width="80.208" height="79.435"/>
			</g>
			<rect x="5.784" y="5.744" fill="#F0E9DF" width="88.429" height="87.577"/>
		</g>
		<g>
			<g>
				<rect x="33.916" y="25" fill="#C2BCB6" width="38.304" height="45.821"/>
				<g>
					<path fill="#5F594E" d="M71.425,44.667H34.712c-1.955,0-3.539,1.584-3.539,3.538v5.751c0,1.954,1.584,3.538,3.539,3.538h36.712
						c1.953,0,3.538-1.584,3.538-3.538v-5.751C74.963,46.25,73.378,44.667,71.425,44.667z M38.411,53.861H34.8v-5.563h3.611V53.861z
						"/>
					<path fill="#5F594E" d="M71.425,30.025H34.712c-1.955,0-3.539,1.583-3.539,3.538v5.751c0,1.954,1.584,3.538,3.539,3.538h36.712
						c1.953,0,3.538-1.584,3.538-3.538v-5.751C74.963,31.609,73.378,30.025,71.425,30.025z M38.411,39.205H34.8v-5.561h3.611V39.205
						z"/>
					<path fill="#5F594E" d="M71.425,59.439H34.712c-1.955,0-3.539,1.585-3.539,3.539v5.751c0,1.953,1.584,3.537,3.539,3.537h36.712
						c1.953,0,3.538-1.584,3.538-3.537v-5.751C74.963,61.024,73.378,59.439,71.425,59.439z M38.411,68.634H34.8v-5.56h3.611V68.634z
						"/>
				</g>
			</g>
			<g>
				<path fill="#E0DAD1" d="M52.011,59.52c-1.318,0-2.549,0.39-3.611,1.057c-1.524-4.093-5.501-7.011-10.168-7.011
					c-5.385,0-9.851,3.889-10.69,8.979c-3.648,0.298-6.504,2.966-6.504,6.213c0,3.204,2.781,5.841,6.359,6.198V75h0.826h10.009
					h13.779h0.352v-0.02c3.804-0.201,6.832-3.574,6.832-7.721C59.194,62.983,55.978,59.52,52.011,59.52z"/>
				<path fill="#5F594E" d="M27.923,72.372l-0.265-0.031c-2.276-0.229-3.993-1.769-3.993-3.583c0-1.827,1.797-3.405,4.09-3.593
					l2.045-0.169l0.334-2.023c0.647-3.928,4.053-6.78,8.097-6.78c3.428,0,6.525,2.131,7.706,5.301l1.126,3.022l2.733-1.713
					c0.691-0.434,1.436-0.653,2.214-0.653c2.512,0,4.556,2.292,4.556,5.11c0,2.73-1.907,4.968-4.342,5.096l-0.322,0.017H27.923z"/>
			</g>
		</g>
	</g>
</g>
<g id="Document_Stroge" display="none">
	<g display="inline">
		<g>
			<rect fill="#5E584D" width="100" height="100"/>
			<g filter="url(#AI_Shadow_1)">
				<rect x="9.895" y="9.815" fill="#F0E9DF" width="80.208" height="79.435"/>
			</g>
			<rect x="5.784" y="5.744" fill="#F0E9DF" width="88.429" height="87.577"/>
		</g>
		<g>
			<g>
				<rect x="33.916" y="25" fill="#C2BCB6" width="38.304" height="45.821"/>
				<g>
					<path fill="#5F594E" d="M71.425,44.667H34.712c-1.955,0-3.539,1.584-3.539,3.538v5.751c0,1.954,1.584,3.538,3.539,3.538h36.712
						c1.953,0,3.538-1.584,3.538-3.538v-5.751C74.963,46.25,73.378,44.667,71.425,44.667z M38.411,53.861H34.8v-5.563h3.611V53.861z
						"/>
					<path fill="#5F594E" d="M71.425,30.025H34.712c-1.955,0-3.539,1.583-3.539,3.538v5.751c0,1.954,1.584,3.538,3.539,3.538h36.712
						c1.953,0,3.538-1.584,3.538-3.538v-5.751C74.963,31.609,73.378,30.025,71.425,30.025z M38.411,39.205H34.8v-5.561h3.611V39.205
						z"/>
					<path fill="#5F594E" d="M71.425,59.439H34.712c-1.955,0-3.539,1.585-3.539,3.539v5.751c0,1.953,1.584,3.537,3.539,3.537h36.712
						c1.953,0,3.538-1.584,3.538-3.537v-5.751C74.963,61.024,73.378,59.439,71.425,59.439z M38.411,68.634H34.8v-5.56h3.611V68.634z
						"/>
				</g>
			</g>
			<g>
				<path fill="#E0DAD1" d="M52.011,59.52c-1.318,0-2.549,0.39-3.611,1.057c-1.524-4.093-5.501-7.011-10.168-7.011
					c-5.385,0-9.851,3.889-10.69,8.979c-3.648,0.298-6.504,2.966-6.504,6.213c0,3.204,2.781,5.841,6.359,6.198V75h0.826h10.009
					h13.779h0.352v-0.02c3.804-0.201,6.832-3.574,6.832-7.721C59.194,62.983,55.978,59.52,52.011,59.52z"/>
				<path fill="#5F594E" d="M27.923,72.372l-0.265-0.031c-2.276-0.229-3.993-1.769-3.993-3.583c0-1.827,1.797-3.405,4.09-3.593
					l2.045-0.169l0.334-2.023c0.647-3.928,4.053-6.78,8.097-6.78c3.428,0,6.525,2.131,7.706,5.301l1.126,3.022l2.733-1.713
					c0.691-0.434,1.436-0.653,2.214-0.653c2.512,0,4.556,2.292,4.556,5.11c0,2.73-1.907,4.968-4.342,5.096l-0.322,0.017H27.923z"/>
			</g>
		</g>
	</g>
</g>
<g id="Document">
	<g>
		<g>
			<g>
				<rect fill="#5E584D" width="100" height="100"/>
				<g filter="url(#AI_Shadow_1)">
					<rect x="9.895" y="9.815" fill="#F0E9DF" width="80.208" height="79.435"/>
				</g>
				<rect x="5.784" y="5.744" fill="#F0E9DF" width="88.429" height="87.577"/>
			</g>
		</g>
		<g>
			<g>
				<rect x="30.848" y="26.366" fill="#C2BCB6" width="38.304" height="45.821"/>
				<g>
					<path fill="#5F594E" d="M68.356,46.033H31.645c-1.955,0-3.539,1.584-3.539,3.538v5.751c0,1.954,1.584,3.538,3.539,3.538h36.712
						c1.953,0,3.538-1.584,3.538-3.538v-5.751C71.895,47.617,70.31,46.033,68.356,46.033z M35.343,55.229h-3.61v-5.563h3.61V55.229z
						"/>
					<path fill="#5F594E" d="M68.356,31.393H31.645c-1.955,0-3.539,1.583-3.539,3.538v5.751c0,1.953,1.584,3.537,3.539,3.537h36.712
						c1.953,0,3.538-1.584,3.538-3.537v-5.751C71.895,32.976,70.31,31.393,68.356,31.393z M35.343,40.572h-3.61v-5.561h3.61V40.572z
						"/>
					<path fill="#5F594E" d="M68.356,60.807H31.645c-1.955,0-3.539,1.585-3.539,3.539v5.751c0,1.953,1.584,3.537,3.539,3.537h36.712
						c1.953,0,3.538-1.584,3.538-3.537v-5.751C71.895,62.392,70.31,60.807,68.356,60.807z M35.343,70.001h-3.61v-5.56h3.61V70.001z"
						/>
				</g>
			</g>
		</g>
	</g>
</g>
<g id="Template_Repositinges_copy" display="none">
	<g display="inline">
		<g>
			<rect fill="#5E584D" width="100" height="100"/>
			<g filter="url(#AI_Shadow_1)">
				<rect x="9.895" y="9.815" fill="#F0E9DF" width="80.208" height="79.435"/>
			</g>
			<rect x="5.784" y="5.744" fill="#F0E9DF" width="88.429" height="87.577"/>
		</g>
	</g>
	<g display="inline">
		<g>
			<path fill="#5F594E" d="M30.543,23.965v50h41.488v-50H30.543z M69.652,72.213H32.92V25.716h36.732V72.213z"/>
			<rect x="34.969" y="28.128" fill="#5F594E" width="32.637" height="11.714"/>
			<rect x="34.969" y="41.689" fill="#5F594E" width="20.844" height="28.113"/>
			<rect x="58.215" y="41.688" fill="#5F594E" width="9.391" height="28.115"/>
			<g>
				
					<line fill="none" stroke="#EFE8DE" stroke-width="0.5" stroke-linecap="round" stroke-miterlimit="10" x1="37.436" y1="45.055" x2="53.346" y2="45.055"/>
				
					<line fill="none" stroke="#EFE8DE" stroke-width="0.5" stroke-linecap="round" stroke-miterlimit="10" x1="37.436" y1="47.965" x2="51.287" y2="47.965"/>
				
					<line fill="none" stroke="#EFE8DE" stroke-width="0.5" stroke-linecap="round" stroke-miterlimit="10" x1="37.436" y1="50.876" x2="53.346" y2="50.876"/>
				
					<line fill="none" stroke="#EFE8DE" stroke-width="0.5" stroke-linecap="round" stroke-miterlimit="10" x1="37.436" y1="53.786" x2="51.42" y2="53.786"/>
				
					<line fill="none" stroke="#EFE8DE" stroke-width="0.5" stroke-linecap="round" stroke-miterlimit="10" x1="37.436" y1="56.695" x2="45.133" y2="56.695"/>
				
					<line fill="none" stroke="#EFE8DE" stroke-width="0.5" stroke-linecap="round" stroke-miterlimit="10" x1="37.436" y1="59.605" x2="51.42" y2="59.605"/>
				
					<line fill="none" stroke="#EFE8DE" stroke-width="0.5" stroke-linecap="round" stroke-miterlimit="10" x1="37.436" y1="62.516" x2="48.88" y2="62.516"/>
			</g>
		</g>
		<g>
			<path fill="#E0DAD1" d="M57.499,61.276c-1.258,0-2.431,0.372-3.442,1.008c-1.453-3.902-5.247-6.684-9.695-6.684
				c-5.134,0-9.393,3.707-10.192,8.561c-3.478,0.283-6.201,2.828-6.201,5.923c0,3.055,2.652,5.569,6.063,5.91v0.041h0.786h9.544
				h13.138h0.335v-0.019c3.627-0.19,6.514-3.407,6.514-7.36C64.348,64.579,61.281,61.276,57.499,61.276z"/>
			<path fill="#5F594E" d="M34.533,73.53l-0.252-0.029c-2.17-0.219-3.808-1.687-3.808-3.417c0-1.742,1.713-3.246,3.899-3.425
				l1.95-0.161l0.319-1.93c0.617-3.744,3.864-6.464,7.719-6.464c3.268,0,6.222,2.031,7.347,5.054l1.074,2.882l2.604-1.634
				c0.659-0.412,1.37-0.622,2.112-0.622c2.394,0,4.344,2.185,4.344,4.872c0,2.604-1.819,4.736-4.14,4.858l-0.308,0.016H34.533z"/>
		</g>
	</g>
</g>
<g id="Users" display="none">
	<g display="inline">
		<g>
			<rect fill="#5E584D" width="100" height="100"/>
			<g filter="url(#AI_Shadow_1)">
				<rect x="9.895" y="9.815" fill="#F0E9DF" width="80.208" height="79.435"/>
			</g>
			<rect x="5.784" y="5.744" fill="#F0E9DF" width="88.429" height="87.577"/>
		</g>
	</g>
	<g display="inline">
		<g>
			<ellipse fill="#5F5A4F" cx="49.926" cy="39.489" rx="12.162" ry="14.489"/>
			<path fill="#5F5A4F" d="M76.137,75C75.199,63.256,63.855,53.979,50,53.979c-13.856,0-25.199,9.277-26.137,21.021H76.137z"/>
		</g>
		<g>
			<g>
				<path fill="#5F5A4F" d="M31.454,58.103c2.304-1.699,4.955-3.056,7.847-3.982c0.555-0.772,1.026-1.632,1.398-2.562
					c-2.791-1.916-4.854-5.351-5.302-9.444c-0.237-2.176,0.012-4.268,0.643-6.123c-1.219-0.675-2.574-1.055-4.003-1.055
					c-5.307,0-9.609,5.192-9.609,11.595C22.427,52.699,26.418,57.738,31.454,58.103z"/>
				<path fill="#5F5A4F" d="M31.71,57.919C20.826,58.084,11.971,65.561,11.23,75h10.135C21.902,68.027,25.843,61.894,31.71,57.919z"
					/>
			</g>
			<g>
				<path fill="#5F5A4F" d="M68.545,58.103c-2.304-1.699-4.953-3.056-7.846-3.982c-0.554-0.772-1.025-1.632-1.397-2.562
					c2.792-1.916,4.854-5.351,5.302-9.444c0.238-2.176-0.012-4.268-0.642-6.123c1.218-0.675,2.573-1.055,4.001-1.055
					c5.309,0,9.61,5.192,9.61,11.595C77.573,52.699,73.581,57.738,68.545,58.103z"/>
				<path fill="#5F5A4F" d="M68.291,57.919C79.175,58.084,88.03,65.561,88.771,75H78.635C78.099,68.027,74.157,61.894,68.291,57.919
					z"/>
			</g>
		</g>
	</g>
</g>
<g id="language" display="none">
	<g display="inline">
		<g>
			<rect fill="#5E584D" width="100" height="100"/>
			<g filter="url(#AI_Shadow_1)">
				<rect x="9.895" y="9.815" fill="#F0E9DF" width="80.208" height="79.435"/>
			</g>
			<rect x="5.784" y="5.744" fill="#F0E9DF" width="88.429" height="87.577"/>
		</g>
	</g>
	<g display="inline">
		<path d="M45.659,26.644c0.545-0.791,1.395-1.903,3.498-1.589c2.127,0.317,13.654,3.687,24.008,9.857
			c1.235,1.02,0.564,2.422,0.401,2.709c-0.096,0.165-10.12,19.113-31.405,29.567c-2.54,1.247-3.473,3.527-2.702,4.77
			c0.556,0.964,2.159,1.485,8.154-1.479c7.37-3.365,28.592-10.287,35.728-13.308c1.331-0.393,2.002,1.962,1.113,2.386
			c-10.696,4.087-21.306,6.836-39.748,14.625c-2.545,1.273-5.66,1.258-9.729-1.47c-2.521-1.689-15.219-9.046-18.891-12.839
			c-1.117-1.155-1.711-4.712,0.955-6.359C19.945,51.718,31.608,47.015,45.659,26.644z"/>
		<path opacity="0.23" fill="#707070" d="M73.877,36.634c-0.052,0.469-0.234,0.852-0.311,0.986
			c-0.096,0.165-10.12,19.113-31.405,29.567c-2.54,1.247-3.473,3.527-2.702,4.77c0.556,0.964,2.159,1.485,8.154-1.479
			c7.37-3.365,28.592-10.287,35.728-13.308c0.176-0.052,0.339-0.054,0.489-0.021c0,0-0.021-1.429-2.01-2.755
			c-0.402-0.271,1.302-2.134-0.783-5.516c-0.273-1.187,0.108-3.163-3.136-4.481c-0.021-1.151-0.043-3.021-2.614-4.165
			c-0.041-1.374,0.326-2.771-1.405-3.599C73.88,36.634,73.878,36.635,73.877,36.634z"/>
		<g>
			<path fill="#D6D3D2" d="M77.901,44.398C60.4,61.613,48.028,67.844,42.961,70.079c-0.661,0.334-1.239,0.587-1.694,0.725
				c0,0,22.958-7.361,39.771-21.924C80.878,47.806,80.907,45.716,77.901,44.398z"/>
			<g>
				<path fill="#7A7468" d="M80.958,48.879c-16.812,14.563-39.77,21.924-39.77,21.924s15.181-3.225,40.554-16.408
					C81.946,53.023,82.151,49.85,80.958,48.879z"/>
			</g>
			<path fill="#7A7468" d="M75.287,40.233c0,0-14.166,20.197-34.021,30.571c3.398-1.431,16.687-6.783,36.635-26.406
				C77.842,43.395,77.853,41.386,75.287,40.233z"/>
		</g>
		<path fill="#5E584D" d="M45.659,26.644c0.545-0.791,1.395-1.903,3.498-1.589c2.127,0.317,13.654,3.687,24.008,9.857
			c1.235,1.02,0.564,2.422,0.401,2.709c-0.096,0.165-10.12,19.113-31.405,29.567c-2.54,1.247-3.473,3.527-2.702,4.77
			c0.556,0.964,2.159,1.485,8.154-1.479c7.37-3.365,28.592-10.287,35.728-13.308c1.331-0.393,2.002,1.962,1.113,2.386
			c-10.696,4.087-21.306,6.836-39.748,14.625c-2.545,1.273-5.66,1.258-9.729-1.47c-2.521-1.689-15.219-9.046-18.891-12.839
			c-1.117-1.155-1.711-4.712,0.955-6.359C19.945,51.718,31.608,47.015,45.659,26.644z"/>
		<path fill="#7A7468" d="M37.274,71.776c-0.387-0.215-0.781-0.456-1.184-0.726c-0.613-0.411-1.752-1.112-3.194-2
			c-4.445-2.736-12.722-7.83-15.373-10.568c-0.148-0.162-0.475-0.939-0.355-1.809c0.09-0.652,0.393-1.13,0.926-1.459
			c0.31-0.191,0.728-0.418,1.243-0.698c4.566-2.488,15.262-8.314,27.969-26.737C47.729,27.166,47.92,27,48.46,27
			c0.124,0,0.258,0.011,0.402,0.032c1.932,0.289,12.962,3.506,23.024,9.446c-0.012,0.038-0.036,0.111-0.062,0.159
			c-1.075,1.972-10.803,19.058-30.546,28.755c-1.972,0.968-3.392,2.528-3.895,4.281C37.177,70.397,37.142,71.114,37.274,71.776z"/>
		<g>
			<g>
				<path fill="#F0E9DF" d="M42.227,48.493l1.487-1.742l6.326,4.773l2.867-3.361l1.135,0.856l-4.353,5.103L42.227,48.493z"/>
			</g>
			<path fill-rule="evenodd" clip-rule="evenodd" fill="#F0E9DF" d="M55.636,50.239c-0.354,0.19-0.16-0.862-0.275-1.175
				c0.724-0.727,0.694-1.292,0.793-1.884c-1.674-0.759-1.284-2.174-2.609-2.662c-0.535-0.195-1.491,0.351-2.135,0.322
				c-0.635-0.029-1.481-0.349-2.415-0.304c-0.65,0.032-2.017,0.486-2.347,0.299c-0.651-0.368-0.271-1.529-0.553-2.211
				c-1.493,0.074-2.987,0.302-4.483,0.896c-0.573,0.773-1.144,1.186-1.715,1.465c-0.702,1.573-2.879,4.103-1.097,4.693
				c0.45-0.426,0.375-0.88,1.146-1.206c0.652,0.014,0.977,0.171,1.345,0.739c-1.167,1.713-1.334,3.577-1.596,4.869
				c-3.128-3.683-3.234-8.803,1.513-13.765c3.784-3.955,9.266-4.94,12.952-2.648C58.181,40.172,58.493,45.516,55.636,50.239z
				 M39.55,43.621c1.306-0.198,3.965-2.635,3.297-4C41.533,40.456,39.993,42.259,39.55,43.621z M48.604,39.411
				c0.773-0.342,0.545-0.832,0.861-1.42c0.43-0.209,1.233-0.468,1.427-0.856c-1.35,0.14-2.699-0.118-4.053,0.529
				C46.837,38.5,48.202,38.64,48.604,39.411z M50.098,38.883c0.136,0.802-0.402,1.729,0.126,2.304
				c1.311,1.424,4.153-1.11,5.691-0.676c-0.514-1.245-2.068-2.695-3.603-3.132C51.575,37.716,50.837,38.357,50.098,38.883z"/>
		</g>
	</g>
</g>
<g id="File_System" display="none">
	<g display="inline">
		<g>
			<rect fill="#5E584D" width="100" height="100"/>
			<g filter="url(#AI_Shadow_1)">
				<rect x="9.895" y="9.815" fill="#F0E9DF" width="80.208" height="79.435"/>
			</g>
			<rect x="5.784" y="5.744" fill="#F0E9DF" width="88.429" height="87.577"/>
		</g>
	</g>
	<g display="inline">
		<g>
			<polygon fill="#332D25" points="30.712,37.464 25,43.67 25,67.241 47.805,67.241 47.805,37.464 			"/>
			
				<line fill="none" stroke="#EFE8DE" stroke-width="0.25" stroke-miterlimit="10" x1="33.878" y1="43.191" x2="42.933" y2="43.191"/>
			<line fill="none" stroke="#EFE8DE" stroke-width="0.25" stroke-miterlimit="10" x1="29.919" y1="47.81" x2="42.933" y2="47.81"/>
			
				<line fill="none" stroke="#EFE8DE" stroke-width="0.25" stroke-miterlimit="10" x1="29.919" y1="52.008" x2="39.034" y2="52.008"/>
			
				<line fill="none" stroke="#EFE8DE" stroke-width="0.25" stroke-miterlimit="10" x1="29.919" y1="56.747" x2="42.933" y2="56.747"/>
			
				<line fill="none" stroke="#EFE8DE" stroke-width="0.25" stroke-miterlimit="10" x1="29.919" y1="61.003" x2="39.034" y2="61.003"/>
			<polygon fill="#84786A" points="25,43.67 30.706,43.67 30.706,37.464 			"/>
		</g>
		<g>
			<path fill="#60584D" d="M75,68.862c0,1.131-0.916,2.038-2.039,2.038H62.195c-1.121,0-2.037-0.907-2.037-2.038V31.699
				c0-1.128,0.916-2.04,2.037-2.04h10.766c1.123,0,2.039,0.911,2.039,2.04V68.862z"/>
			<path fill="#D7D4D3" d="M67.579,59.116c-1.767,0-3.2,1.433-3.2,3.202c0,1.769,1.434,3.202,3.2,3.202
				c1.766,0,3.199-1.434,3.199-3.202C70.778,60.549,69.345,59.116,67.579,59.116z M67.579,63.857c-0.851,0-1.54-0.69-1.54-1.539
				c0-0.848,0.689-1.539,1.54-1.539c0.85,0,1.539,0.691,1.539,1.539C69.118,63.167,68.429,63.857,67.579,63.857z"/>
			<path fill="#D7D4D3" d="M72.316,51.46c0,0.562-0.582,1.016-1.306,1.016h-6.864c-0.725,0-1.305-0.454-1.305-1.016V32.911
				c0-0.562,0.58-1.013,1.305-1.013h6.864c0.724,0,1.306,0.452,1.306,1.013V51.46z"/>
			<g>
				<rect x="64.88" y="35.834" fill="#60584D" width="5.397" height="1.969"/>
				<rect x="64.88" y="39.682" fill="#60584D" width="5.397" height="1.969"/>
			</g>
			<circle fill="#60584D" cx="67.41" cy="50.382" r="0.963"/>
			<path fill="none" stroke="#C9C4BD" stroke-width="0.5" stroke-linecap="round" stroke-miterlimit="10" d="M67.484,50.678
				c0,0-2.369,4.516,0,11.698"/>
		</g>
		<g>
			<g>
				<path fill="#60584D" d="M57.221,69.055c-0.106,1.125-1.104,1.942-2.222,1.837L44.281,69.88
					c-1.117-0.105-1.943-1.096-1.837-2.222l3.493-36.999c0.106-1.124,1.104-1.945,2.22-1.839l10.719,1.012
					c1.117,0.105,1.944,1.098,1.838,2.222L57.221,69.055z"/>
				<path fill="#D7D4D3" d="M50.749,58.654c-1.759-0.168-3.32,1.124-3.487,2.886c-0.166,1.761,1.127,3.323,2.885,3.489
					c1.759,0.166,3.32-1.127,3.486-2.888C53.798,60.381,52.506,58.819,50.749,58.654z M50.303,63.374
					c-0.847-0.08-1.468-0.832-1.389-1.678c0.08-0.844,0.832-1.468,1.678-1.388c0.847,0.08,1.468,0.833,1.388,1.677
					C51.899,62.831,51.148,63.453,50.303,63.374z"/>
				<path fill="#D7D4D3" d="M56.185,51.477c-0.052,0.559-0.675,0.956-1.396,0.888l-6.834-0.645
					c-0.721-0.068-1.256-0.575-1.203-1.135l1.744-18.466c0.052-0.559,0.672-0.954,1.394-0.886l6.834,0.645
					c0.72,0.068,1.257,0.572,1.204,1.132L56.185,51.477z"/>
				<g>
					
						<rect x="50.145" y="35.469" transform="matrix(0.9956 0.094 -0.094 0.9956 3.66 -4.8052)" fill="#60584D" width="5.398" height="1.969"/>
					
						<rect x="49.783" y="39.3" transform="matrix(0.9956 0.0941 -0.0941 0.9956 4.0229 -4.759)" fill="#60584D" width="5.397" height="1.969"/>
				</g>
				<circle fill="#60584D" cx="51.402" cy="49.942" r="0.963"/>
				<path fill="none" stroke="#C9C4BD" stroke-width="0.5" stroke-linecap="round" stroke-miterlimit="10" d="M51.447,50.243
					c0,0-2.783,4.273-1.1,11.646"/>
			</g>
		</g>
	</g>
</g>
<g id="FTP" display="none">
	<g display="inline">
		<g>
			<rect fill="#5E584D" width="100" height="100"/>
			<g filter="url(#AI_Shadow_1)">
				<rect x="9.895" y="9.815" fill="#F0E9DF" width="80.208" height="79.435"/>
			</g>
			<rect x="5.784" y="5.744" fill="#F0E9DF" width="88.429" height="87.577"/>
		</g>
	</g>
	<g display="inline">
		<path fill="#60584D" d="M31.569,36.834c-3.962,4.05-6.423,9.581-6.423,15.698C25.146,64.941,35.205,75,47.616,75
			c6.174,0,11.758-2.495,15.819-6.522L31.569,36.834z"/>
		<path fill="#60584D" d="M56.814,38.912c-2.315,0-4.19,1.875-4.19,4.19c0,0.611,0.146,1.184,0.383,1.708L47.9,49.913l2.508,2.501
			l5.335-5.339c0.353,0.095,0.692,0.217,1.071,0.217c2.314,0,4.19-1.875,4.19-4.19C61.005,40.788,59.129,38.912,56.814,38.912z"/>
		<path fill="none" stroke="#60584D" stroke-width="0.5" stroke-miterlimit="10" d="M55.648,34.37c0,0,8.967-0.585,10.187,10.185"/>
		<path fill="none" stroke="#60584D" stroke-width="0.5" stroke-miterlimit="10" d="M55.37,29.4c0,0,13.464-0.88,15.297,15.294"/>
		<path fill="none" stroke="#60584D" stroke-width="0.5" stroke-miterlimit="10" d="M55.605,25.011c0,0,16.942-1.108,19.248,19.24"
			/>
	</g>
</g>
<g id="Layer_13" display="none">
	<g display="inline">
		<g>
			<rect fill="#5E584D" width="100" height="100"/>
			<g filter="url(#AI_Shadow_1)">
				<rect x="9.895" y="9.815" fill="#F0E9DF" width="80.208" height="79.435"/>
			</g>
			<rect x="5.784" y="5.744" fill="#F0E9DF" width="88.429" height="87.577"/>
		</g>
	</g>
	<g display="inline">
		<path fill="#60584D" d="M30.748,34.417c0.062-0.077,0.123-0.155,0.186-0.231C30.871,34.262,30.81,34.34,30.748,34.417z"/>
		<path opacity="0.26" fill="#60584D" d="M30.748,34.417c-3.471,4.278-5.634,9.644-5.634,15.583c0,0.341,0.097,0.646,0.107,0.987
			c0.005-0.011,0.012-0.022,0.017-0.033c-0.011-0.306-0.023-0.612-0.023-0.921C25.214,44.114,27.29,38.682,30.748,34.417z"/>
		<path opacity="0.26" fill="#60584D" d="M31.394,33.616c-0.161,0.184-0.304,0.382-0.46,0.57c0.152-0.183,0.31-0.36,0.466-0.538
			C31.398,33.638,31.396,33.627,31.394,33.616z"/>
		<path fill="#60584D" d="M31.399,33.648c-0.156,0.178-0.314,0.355-0.466,0.538c-0.063,0.076-0.124,0.154-0.186,0.231
			c-3.458,4.265-5.533,9.697-5.533,15.616c0,0.309,0.012,0.615,0.023,0.921c1.995-4.06,4.592-7.805,7.709-11.137
			C32.304,37.808,31.751,35.759,31.399,33.648z"/>
		<path opacity="0.26" fill="#60584D" d="M31.399,33.648c-0.156,0.178-0.314,0.355-0.466,0.538
			c-0.063,0.076-0.124,0.154-0.186,0.231c-3.458,4.265-5.533,9.697-5.533,15.616c0,0.309,0.012,0.615,0.023,0.921
			c1.995-4.06,4.592-7.805,7.709-11.137C32.304,37.808,31.751,35.759,31.399,33.648z"/>
		<path opacity="0.26" fill="#60584D" d="M25.771,55.582c0.466,1.988,1.188,3.871,2.108,5.637c-0.911-1.801-1.608-3.727-2.06-5.746
			C25.804,55.51,25.787,55.545,25.771,55.582z"/>
		<path fill="#60584D" d="M33.327,68.097c0.159,0,0.307-0.018,0.466-0.023c0.096-0.896,0.277-1.77,0.437-2.654
			c-0.636-0.499-1.066-1.236-1.066-2.11c0-1.322,0.959-2.371,2.207-2.621c0.93-2.995,2.167-5.883,3.716-8.6
			c-2.105-2.928-3.807-6.104-5.14-9.445c-3.428,3.805-6.156,8.141-8.126,12.83c0.452,2.02,1.149,3.945,2.06,5.746
			c1.341,2.576,3.114,4.896,5.221,6.872C33.175,68.091,33.248,68.097,33.327,68.097z"/>
		<path opacity="0.26" fill="#60584D" d="M33.327,68.097c0.159,0,0.307-0.018,0.466-0.023c0.096-0.896,0.277-1.77,0.437-2.654
			c-0.636-0.499-1.066-1.236-1.066-2.11c0-1.322,0.959-2.371,2.207-2.621c0.93-2.995,2.167-5.883,3.716-8.6
			c-2.105-2.928-3.807-6.104-5.14-9.445c-3.428,3.805-6.156,8.141-8.126,12.83c0.452,2.02,1.149,3.945,2.06,5.746
			c1.341,2.576,3.114,4.896,5.221,6.872C33.175,68.091,33.248,68.097,33.327,68.097z"/>
		<path fill="#60584D" d="M43.572,45.598c-0.062-0.232-0.142-0.459-0.142-0.709c0-0.244,0.08-0.459,0.137-0.687
			c-2.354-1.497-4.437-3.165-6.195-4.992c-0.544,0.499-1.044,1.027-1.565,1.543c1.26,3.098,2.831,6.059,4.748,8.805
			C41.474,48.179,42.506,46.874,43.572,45.598z"/>
		<path opacity="0.26" fill="#60584D" d="M43.572,45.598c-0.062-0.232-0.142-0.459-0.142-0.709c0-0.244,0.08-0.459,0.137-0.687
			c-2.354-1.497-4.437-3.165-6.195-4.992c-0.544,0.499-1.044,1.027-1.565,1.543c1.26,3.098,2.831,6.059,4.748,8.805
			C41.474,48.179,42.506,46.874,43.572,45.598z"/>
		<path fill="#60584D" d="M34.763,37.974c0.272-0.262,0.521-0.533,0.8-0.795c-0.646-0.828-1.254-1.667-1.775-2.547
			C34.06,35.767,34.405,36.873,34.763,37.974z"/>
		<path opacity="0.26" fill="#60584D" d="M34.763,37.974c0.272-0.262,0.521-0.533,0.8-0.795c-0.646-0.828-1.254-1.667-1.775-2.547
			C34.06,35.767,34.405,36.873,34.763,37.974z"/>
		<path fill="#60584D" d="M62.787,58.725c0-1.497,1.214-2.717,2.717-2.717c0.414,0,0.8,0.107,1.146,0.277
			c1.736-1.429,3.398-2.915,4.901-4.549C62.775,51.73,54.76,49.824,48.14,46.71c-0.5,0.544-1.197,0.896-1.991,0.896
			c-0.313,0-0.607-0.08-0.885-0.176c-1.106,1.372-2.207,2.751-3.138,4.237c3.631,4.617,8.237,8.475,13.428,11.59
			c2.581-1.186,5.004-2.599,7.307-4.153C62.844,58.975,62.787,58.861,62.787,58.725z"/>
		<path opacity="0.26" fill="#60584D" d="M62.787,58.725c0-1.497,1.214-2.717,2.717-2.717c0.414,0,0.8,0.107,1.146,0.277
			c1.736-1.429,3.398-2.915,4.901-4.549C62.775,51.73,54.76,49.824,48.14,46.71c-0.5,0.544-1.197,0.896-1.991,0.896
			c-0.313,0-0.607-0.08-0.885-0.176c-1.106,1.372-2.207,2.751-3.138,4.237c3.631,4.617,8.237,8.475,13.428,11.59
			c2.581-1.186,5.004-2.599,7.307-4.153C62.844,58.975,62.787,58.861,62.787,58.725z"/>
		<path opacity="0.26" fill="#60584D" d="M74.797,51.604c-0.415,6.64-3.436,12.573-8.058,16.783
			c0.027,0.008,0.054,0.019,0.081,0.027c4.606-4.231,7.636-10.16,8.066-16.814C74.856,51.602,74.827,51.602,74.797,51.604z"/>
		<path fill="#60584D" d="M74.797,51.604c-0.208,0.009-0.417,0.015-0.625,0.024c-1.821,2.275-3.892,4.352-6.115,6.28
			c0.085,0.261,0.165,0.527,0.165,0.816c0,1.509-1.215,2.724-2.718,2.724c-0.527,0-0.993-0.193-1.407-0.448
			c-1.917,1.35-3.902,2.62-6.03,3.704c2.762,1.445,5.618,2.731,8.673,3.683C71.361,64.177,74.382,58.243,74.797,51.604z"/>
		<path opacity="0.26" fill="#60584D" d="M74.797,51.604c-0.208,0.009-0.417,0.015-0.625,0.024c-1.821,2.275-3.892,4.352-6.115,6.28
			c0.085,0.261,0.165,0.527,0.165,0.816c0,1.509-1.215,2.724-2.718,2.724c-0.527,0-0.993-0.193-1.407-0.448
			c-1.917,1.35-3.902,2.62-6.03,3.704c2.762,1.445,5.618,2.731,8.673,3.683C71.361,64.177,74.382,58.243,74.797,51.604z"/>
		<path fill="#60584D" d="M40.771,54.221c-1.22,2.28-2.201,4.675-2.99,7.147c0.5,0.494,0.817,1.181,0.817,1.94
			c0,1.208-0.8,2.201-1.889,2.553c-0.143,0.709-0.397,1.384-0.5,2.104c5.758-0.301,11.261-1.458,16.332-3.403
			C48.055,61.709,44.038,58.254,40.771,54.221z"/>
		<path opacity="0.26" fill="#60584D" d="M40.771,54.221c-1.22,2.28-2.201,4.675-2.99,7.147c0.5,0.494,0.817,1.181,0.817,1.94
			c0,1.208-0.8,2.201-1.889,2.553c-0.143,0.709-0.397,1.384-0.5,2.104c5.758-0.301,11.261-1.458,16.332-3.403
			C48.055,61.709,44.038,58.254,40.771,54.221z"/>
		<path opacity="0.26" fill="#60584D" d="M35.885,70.42c-0.003,0.024-0.007,0.05-0.01,0.076c4.033,2.803,8.917,4.465,14.204,4.465
			c5.412,0,10.348-1.793,14.421-4.72c-0.016-0.005-0.03-0.011-0.045-0.017c-4.066,2.909-9.042,4.627-14.422,4.627
			C44.773,74.852,39.899,73.211,35.885,70.42z"/>
		<path fill="#60584D" d="M35.892,70.365c-0.002,0.02-0.004,0.037-0.007,0.055c4.014,2.791,8.888,4.432,14.148,4.432
			c5.38,0,10.356-1.718,14.422-4.627c-3.308-1.065-6.385-2.533-9.332-4.171C49.24,68.596,42.75,70.116,35.892,70.365z"/>
		<path opacity="0.26" fill="#60584D" d="M35.892,70.365c-0.002,0.02-0.004,0.037-0.007,0.055c4.014,2.791,8.888,4.432,14.148,4.432
			c5.38,0,10.356-1.718,14.422-4.627c-3.308-1.065-6.385-2.533-9.332-4.171C49.24,68.596,42.75,70.116,35.892,70.365z"/>
		<path opacity="0.26" fill="#60584D" d="M65.839,30.786c-1.69-1.391-3.591-2.49-5.594-3.421c-0.023,0.005-0.046,0.013-0.069,0.018
			c2.011,0.902,3.882,2.059,5.565,3.438C65.774,30.81,65.806,30.797,65.839,30.786z"/>
		<path fill="#60584D" d="M47.657,32.516c-0.153,0-0.25-0.136-0.392-0.164c-3.035,1.64-5.899,3.512-8.486,5.685
			c1.668,1.696,3.653,3.245,5.843,4.663c0.437-0.313,0.947-0.527,1.526-0.527c0.198,0,0.368,0.067,0.55,0.107
			c5.229-5.078,11.697-9.067,19.043-11.458c-1.684-1.378-3.555-2.536-5.565-3.438c-3.819,0.896-7.439,2.222-10.845,3.874
			C49.03,31.954,48.469,32.516,47.657,32.516z"/>
		<path opacity="0.26" fill="#60584D" d="M47.657,32.516c-0.153,0-0.25-0.136-0.392-0.164c-3.035,1.64-5.899,3.512-8.486,5.685
			c1.668,1.696,3.653,3.245,5.843,4.663c0.437-0.313,0.947-0.527,1.526-0.527c0.198,0,0.368,0.067,0.55,0.107
			c5.229-5.078,11.697-9.067,19.043-11.458c-1.684-1.378-3.555-2.536-5.565-3.438c-3.819,0.896-7.439,2.222-10.845,3.874
			C49.03,31.954,48.469,32.516,47.657,32.516z"/>
		<path opacity="0.26" fill="#60584D" d="M55.764,25.887c0.052-0.015,0.102-0.033,0.153-0.048c-1.878-0.471-3.813-0.8-5.838-0.8
			c-6.183,0-11.771,2.326-16.133,6.053c0.005,0.012,0.012,0.023,0.017,0.035c4.331-3.685,9.938-5.912,16.069-5.912
			C52.006,25.215,53.924,25.452,55.764,25.887z"/>
		<path fill="#60584D" d="M45.967,29.89c0.289-0.727,0.862-1.311,1.69-1.311c0.227,0,0.374,0.17,0.573,0.238
			c2.415-1.141,4.907-2.158,7.533-2.93c-1.84-0.435-3.758-0.672-5.731-0.672c-6.131,0-11.739,2.228-16.069,5.912
			c0.743,1.705,1.824,3.3,3.051,4.838C39.743,33.65,42.744,31.614,45.967,29.89z"/>
		<path opacity="0.26" fill="#60584D" d="M45.967,29.89c0.289-0.727,0.862-1.311,1.69-1.311c0.227,0,0.374,0.17,0.573,0.238
			c2.415-1.141,4.907-2.158,7.533-2.93c-1.84-0.435-3.758-0.672-5.731-0.672c-6.131,0-11.739,2.228-16.069,5.912
			c0.743,1.705,1.824,3.3,3.051,4.838C39.743,33.65,42.744,31.614,45.967,29.89z"/>
		<path opacity="0.26" fill="#60584D" d="M74.753,47.883c0.021-0.028,0.044-0.055,0.065-0.084
			c-0.55-6.132-3.205-11.646-7.386-15.702c-0.063,0.021-0.122,0.047-0.185,0.068C71.448,36.213,74.224,41.726,74.753,47.883z"/>
		<path fill="#60584D" d="M48.865,44.889c0,0.074-0.039,0.142-0.045,0.216c6.683,3.284,14.874,5.298,23.849,5.35
			c0.72-0.841,1.427-1.684,2.084-2.571c-0.529-6.157-3.305-11.67-7.505-15.718c-7.212,2.468-13.56,6.471-18.678,11.544
			C48.746,44.066,48.865,44.463,48.865,44.889z"/>
		<path opacity="0.26" fill="#60584D" d="M48.865,44.889c0,0.074-0.039,0.142-0.045,0.216c6.683,3.284,14.874,5.298,23.849,5.35
			c0.72-0.841,1.427-1.684,2.084-2.571c-0.529-6.157-3.305-11.67-7.505-15.718c-7.212,2.468-13.56,6.471-18.678,11.544
			C48.746,44.066,48.865,44.463,48.865,44.889z"/>
	</g>
	<g display="inline">
		<path fill="#625A4E" d="M-27.333,52.792c0.019-0.023,0.038-0.045,0.057-0.067C-27.295,52.747-27.314,52.769-27.333,52.792z"/>
		<path opacity="0.26" fill="#625A4E" d="M-27.333,52.792c-1.052,1.3-1.711,2.928-1.711,4.727c0,0.105,0.031,0.199,0.038,0.302
			c0,0,0-0.005,0-0.01c0-0.093,0-0.187,0-0.282C-29.006,55.731-28.379,54.087-27.333,52.792z"/>
		<path opacity="0.26" fill="#625A4E" d="M-27.136,52.548c-0.044,0.058-0.096,0.115-0.14,0.177c0.044-0.062,0.096-0.112,0.146-0.167
			C-27.13,52.558-27.136,52.558-27.136,52.548z"/>
		<path fill="#625A4E" d="M-27.13,52.558c-0.05,0.055-0.102,0.105-0.146,0.167c-0.019,0.022-0.038,0.044-0.057,0.067
			c-1.045,1.295-1.673,2.939-1.673,4.736c0,0.096,0,0.189,0,0.282c0.608-1.233,1.395-2.366,2.346-3.379
			C-26.864,53.819-27.029,53.198-27.13,52.558z"/>
		<path opacity="0.26" fill="#625A4E" d="M-27.13,52.558c-0.05,0.055-0.102,0.105-0.146,0.167c-0.019,0.022-0.038,0.044-0.057,0.067
			c-1.045,1.295-1.673,2.939-1.673,4.736c0,0.096,0,0.189,0,0.282c0.608-1.233,1.395-2.366,2.346-3.379
			C-26.864,53.819-27.029,53.198-27.13,52.558z"/>
		<path opacity="0.26" fill="#625A4E" d="M-28.841,59.216c0.138,0.603,0.367,1.171,0.633,1.711c-0.267-0.55-0.482-1.133-0.622-1.744
			C-28.83,59.194-28.841,59.204-28.841,59.216z"/>
		<path fill="#625A4E" d="M-26.547,63.016c0.045,0,0.09-0.008,0.14-0.01c0.025-0.272,0.083-0.54,0.134-0.808
			c-0.197-0.15-0.324-0.378-0.324-0.641c0-0.401,0.292-0.717,0.672-0.793c0.279-0.908,0.653-1.788,1.123-2.61
			c-0.641-0.889-1.148-1.85-1.561-2.865c-1.034,1.154-1.87,2.469-2.466,3.894c0.14,0.611,0.355,1.194,0.622,1.744
			c0.412,0.781,0.951,1.486,1.585,2.084C-26.598,63.011-26.572,63.016-26.547,63.016z"/>
		<path opacity="0.26" fill="#625A4E" d="M-26.547,63.016c0.045,0,0.09-0.008,0.14-0.01c0.025-0.272,0.083-0.54,0.134-0.808
			c-0.197-0.15-0.324-0.378-0.324-0.641c0-0.401,0.292-0.717,0.672-0.793c0.279-0.908,0.653-1.788,1.123-2.61
			c-0.641-0.889-1.148-1.85-1.561-2.865c-1.034,1.154-1.87,2.469-2.466,3.894c0.14,0.611,0.355,1.194,0.622,1.744
			c0.412,0.781,0.951,1.486,1.585,2.084C-26.598,63.011-26.572,63.016-26.547,63.016z"/>
		<path fill="#625A4E" d="M-23.44,56.186c-0.012-0.071-0.044-0.139-0.044-0.215c0-0.072,0.032-0.139,0.044-0.211
			c-0.716-0.451-1.344-0.956-1.876-1.515c-0.165,0.152-0.324,0.311-0.482,0.468c0.38,0.942,0.862,1.841,1.445,2.675
			C-24.074,56.965-23.763,56.567-23.44,56.186z"/>
		<path opacity="0.26" fill="#625A4E" d="M-23.44,56.186c-0.012-0.071-0.044-0.139-0.044-0.215c0-0.072,0.032-0.139,0.044-0.211
			c-0.716-0.451-1.344-0.956-1.876-1.515c-0.165,0.152-0.324,0.311-0.482,0.468c0.38,0.942,0.862,1.841,1.445,2.675
			C-24.074,56.965-23.763,56.567-23.44,56.186z"/>
		<path fill="#625A4E" d="M-26.116,53.872c0.089-0.081,0.165-0.162,0.242-0.243c-0.19-0.249-0.381-0.505-0.533-0.774
			C-26.331,53.203-26.218,53.535-26.116,53.872z"/>
		<path opacity="0.26" fill="#625A4E" d="M-26.116,53.872c0.089-0.081,0.165-0.162,0.242-0.243c-0.19-0.249-0.381-0.505-0.533-0.774
			C-26.331,53.203-26.218,53.535-26.116,53.872z"/>
		<path fill="#625A4E" d="M-17.607,60.167c0-0.454,0.368-0.822,0.825-0.822c0.126,0,0.24,0.028,0.342,0.081
			c0.533-0.435,1.034-0.882,1.484-1.379c-2.656,0-5.091-0.58-7.101-1.524c-0.152,0.165-0.361,0.272-0.596,0.272
			c-0.102,0-0.19-0.026-0.272-0.055c-0.336,0.42-0.666,0.834-0.951,1.288c1.097,1.397,2.499,2.568,4.077,3.51
			c0.78-0.355,1.515-0.788,2.219-1.252C-17.595,60.243-17.607,60.21-17.607,60.167z"/>
		<path opacity="0.26" fill="#625A4E" d="M-17.607,60.167c0-0.454,0.368-0.822,0.825-0.822c0.126,0,0.24,0.028,0.342,0.081
			c0.533-0.435,1.034-0.882,1.484-1.379c-2.656,0-5.091-0.58-7.101-1.524c-0.152,0.165-0.361,0.272-0.596,0.272
			c-0.102,0-0.19-0.026-0.272-0.055c-0.336,0.42-0.666,0.834-0.951,1.288c1.097,1.397,2.499,2.568,4.077,3.51
			c0.78-0.355,1.515-0.788,2.219-1.252C-17.595,60.243-17.607,60.21-17.607,60.167z"/>
		<path opacity="0.26" fill="#625A4E" d="M-13.969,58.007c-0.126,2.017-1.04,3.813-2.44,5.09c0.006,0.005,0.012,0.005,0.019,0.01
			c1.395-1.286,2.32-3.083,2.453-5.1C-13.942,58.007-13.956,58.007-13.969,58.007z"/>
		<path fill="#625A4E" d="M-13.969,58.007c-0.063,0.002-0.126,0.005-0.19,0.009c-0.551,0.691-1.179,1.319-1.851,1.905
			c0.025,0.079,0.05,0.157,0.05,0.246c0,0.459-0.367,0.824-0.823,0.824c-0.165,0-0.305-0.055-0.431-0.132
			c-0.583,0.407-1.18,0.791-1.833,1.121c0.843,0.438,1.706,0.829,2.638,1.116C-15.008,61.82-14.095,60.023-13.969,58.007z"/>
		<path opacity="0.26" fill="#625A4E" d="M-13.969,58.007c-0.063,0.002-0.126,0.005-0.19,0.009
			c-0.551,0.691-1.179,1.319-1.851,1.905c0.025,0.079,0.05,0.157,0.05,0.246c0,0.459-0.367,0.824-0.823,0.824
			c-0.165,0-0.305-0.055-0.431-0.132c-0.583,0.407-1.18,0.791-1.833,1.121c0.843,0.438,1.706,0.829,2.638,1.116
			C-15.008,61.82-14.095,60.023-13.969,58.007z"/>
		<path fill="#625A4E" d="M-24.29,58.8c-0.367,0.688-0.672,1.42-0.913,2.17c0.153,0.148,0.254,0.358,0.254,0.588
			c0,0.368-0.241,0.669-0.571,0.771c-0.05,0.218-0.121,0.424-0.152,0.644c1.749-0.091,3.41-0.444,4.952-1.037
			C-22.083,61.075-23.301,60.023-24.29,58.8z"/>
		<path opacity="0.26" fill="#625A4E" d="M-24.29,58.8c-0.367,0.688-0.672,1.42-0.913,2.17c0.153,0.148,0.254,0.358,0.254,0.588
			c0,0.368-0.241,0.669-0.571,0.771c-0.05,0.218-0.121,0.424-0.152,0.644c1.749-0.091,3.41-0.444,4.952-1.037
			C-22.083,61.075-23.301,60.023-24.29,58.8z"/>
		<path opacity="0.26" fill="#625A4E" d="M-25.773,63.713c0,0.01,0,0.015,0,0.024c1.216,0.855,2.7,1.357,4.304,1.357
			c1.643,0,3.139-0.543,4.382-1.43c-0.013-0.004-0.013-0.009-0.013-0.009c-1.235,0.884-2.75,1.405-4.38,1.405
			C-23.073,65.062-24.557,64.564-25.773,63.713z"/>
		<path fill="#625A4E" d="M-25.773,63.699c0,0.005,0,0.014,0,0.014c1.216,0.852,2.7,1.349,4.292,1.349
			c1.63,0,3.145-0.521,4.38-1.405c-1.015-0.32-1.939-0.77-2.833-1.262C-21.715,63.164-23.694,63.627-25.773,63.699z"/>
		<path opacity="0.26" fill="#625A4E" d="M-25.773,63.699c0,0.005,0,0.014,0,0.014c1.216,0.852,2.7,1.349,4.292,1.349
			c1.63,0,3.145-0.521,4.38-1.405c-1.015-0.32-1.939-0.77-2.833-1.262C-21.715,63.164-23.694,63.627-25.773,63.699z"/>
		<path opacity="0.26" fill="#625A4E" d="M-16.681,51.69c-0.521-0.421-1.091-0.758-1.699-1.04c-0.013,0.005-0.013,0.005-0.019,0.009
			c0.602,0.27,1.172,0.621,1.68,1.04C-16.708,51.697-16.7,51.692-16.681,51.69z"/>
		<path fill="#625A4E" d="M-22.204,52.214c-0.044,0-0.069-0.041-0.121-0.048c-0.913,0.497-1.788,1.065-2.574,1.726
			c0.507,0.511,1.116,0.984,1.776,1.414c0.132-0.095,0.284-0.162,0.468-0.162c0.057,0,0.107,0.021,0.165,0.033
			c1.585-1.539,3.544-2.75,5.77-3.477c-0.508-0.419-1.078-0.77-1.68-1.04c-1.16,0.27-2.264,0.674-3.291,1.174
			C-21.786,52.047-21.957,52.214-22.204,52.214z"/>
		<path opacity="0.26" fill="#625A4E" d="M-22.204,52.214c-0.044,0-0.069-0.041-0.121-0.048c-0.913,0.497-1.788,1.065-2.574,1.726
			c0.507,0.511,1.116,0.984,1.776,1.414c0.132-0.095,0.284-0.162,0.468-0.162c0.057,0,0.107,0.021,0.165,0.033
			c1.585-1.539,3.544-2.75,5.77-3.477c-0.508-0.419-1.078-0.77-1.68-1.04c-1.16,0.27-2.264,0.674-3.291,1.174
			C-21.786,52.047-21.957,52.214-22.204,52.214z"/>
		<path opacity="0.26" fill="#625A4E" d="M-19.744,50.204c0.019-0.002,0.031-0.01,0.05-0.01c-0.57-0.146-1.16-0.246-1.776-0.246
			c-1.876,0-3.569,0.703-4.894,1.838c0.007,0.002,0.007,0.007,0.007,0.01c1.312-1.116,3.017-1.795,4.875-1.795
			C-20.879,50.001-20.296,50.072-19.744,50.204z"/>
		<path fill="#625A4E" d="M-22.718,51.418c0.09-0.218,0.267-0.395,0.514-0.395c0.069,0,0.115,0.048,0.178,0.067
			c0.729-0.344,1.489-0.65,2.282-0.887c-0.552-0.132-1.135-0.203-1.737-0.203c-1.858,0-3.563,0.679-4.875,1.795
			c0.228,0.516,0.558,1.001,0.925,1.465C-24.607,52.563-23.694,51.946-22.718,51.418z"/>
		<path opacity="0.26" fill="#625A4E" d="M-22.718,51.418c0.09-0.218,0.267-0.395,0.514-0.395c0.069,0,0.115,0.048,0.178,0.067
			c0.729-0.344,1.489-0.65,2.282-0.887c-0.552-0.132-1.135-0.203-1.737-0.203c-1.858,0-3.563,0.679-4.875,1.795
			c0.228,0.516,0.558,1.001,0.925,1.465C-24.607,52.563-23.694,51.946-22.718,51.418z"/>
		<path opacity="0.26" fill="#625A4E" d="M-13.981,56.879c0.006-0.01,0.012-0.02,0.025-0.024c-0.165-1.859-0.976-3.537-2.244-4.765
			c-0.019,0.004-0.038,0.014-0.057,0.019C-14.982,53.332-14.146,55.01-13.981,56.879z"/>
		<path fill="#625A4E" d="M-21.83,55.971c0,0.019-0.013,0.04-0.019,0.066c2.035,0.994,4.508,1.606,7.234,1.62
			c0.222-0.253,0.431-0.506,0.634-0.778c-0.165-1.869-1.001-3.547-2.276-4.771c-2.188,0.746-4.115,1.965-5.668,3.504
			C-21.868,55.722-21.83,55.842-21.83,55.971z"/>
		<path opacity="0.26" fill="#625A4E" d="M-21.83,55.971c0,0.019-0.013,0.04-0.019,0.066c2.035,0.994,4.508,1.606,7.234,1.62
			c0.222-0.253,0.431-0.506,0.634-0.778c-0.165-1.869-1.001-3.547-2.276-4.771c-2.188,0.746-4.115,1.965-5.668,3.504
			C-21.868,55.722-21.83,55.842-21.83,55.971z"/>
	</g>
	<path display="inline" fill="#625A4E" d="M-25.102,49.446v-2.967l-5.706-6.227h-13.568v25.26h18.211
		c-2.52-1.689-4.178-4.523-4.178-7.74C-30.341,54.13-28.199,51.005-25.102,49.446z M-32.303,59.02h-7.811v-3.651h7.811V59.02z
		 M-30.275,51.21h-10.144v-3.653h10.144V51.21z"/>
</g>
</svg>
