<?xml version="1.0" encoding="utf-8"?>
<!-- Generator: Adobe Illustrator 15.1.0, SVG Export Plug-In . SVG Version: 6.00 Build 0)  -->
<!DOCTYPE svg PUBLIC "-//W3C//DTD SVG 1.1//EN" "http://www.w3.org/Graphics/SVG/1.1/DTD/svg11.dtd">
<svg version="1.1" xmlns="http://www.w3.org/2000/svg" xmlns:xlink="http://www.w3.org/1999/xlink" x="0px" y="0px" width="100px"
	 height="100px" viewBox="0 0 100 100" enable-background="new 0 0 100 100" xml:space="preserve">
<filter  id="AI_Shadow_1" filterUnits="objectBoundingBox">
	<feGaussianBlur  in="SourceAlpha" result="blur" stdDeviation="2"></feGaussianBlur>
	<feOffset  dy="4" dx="4" in="blur" result="offsetBlurredAlpha"></feOffset>
	<feMerge>
		<feMergeNode  in="offsetBlurredAlpha"></feMergeNode>
		<feMergeNode  in="SourceGraphic"></feMergeNode>
	</feMerge>
</filter>
<g id="Template" display="none">
	<g display="inline">
		<rect fill="#1A1A1A" stroke="#070808" stroke-width="0.25" stroke-miterlimit="10" width="100" height="100"/>
		<rect x="1.5" y="1.5" fill="#F5F5F5" width="97" height="96.064"/>
		<g filter="url(#AI_Shadow_1)">
			<rect x="8.905" y="8.834" fill="#DD574B" width="82.187" height="81.396"/>
		</g>
		<rect x="5.784" y="5.744" fill="#8AA251" width="88.429" height="87.578"/>
	</g>
	<g display="inline">
		<g>
			<path fill="#6D7D4A" d="M27.108,22v60h49.785V22H27.108z"/>
			<g>
				<rect x="34.243" y="29.326" fill="#6D7D4A" width="35.513" height="12.747"/>
				<rect x="34.243" y="44.083" fill="#6D7D4A" width="22.683" height="30.591"/>
				<rect x="59.539" y="44.082" fill="#6D7D4A" width="10.217" height="30.592"/>
			</g>
		</g>
		<path fill="#D4DFD1" d="M25.18,20.088v60h49.784v-60H25.18z M70.056,75.386h-39.97V24.79h39.97V75.386z"/>
		<rect x="32.315" y="27.414" fill="#D4DFD1" width="35.513" height="12.747"/>
		<rect x="32.315" y="42.17" fill="#D4DFD1" width="22.682" height="30.591"/>
		<rect x="57.61" y="42.17" fill="#D4DFD1" width="10.218" height="30.592"/>
		<g>
			
				<line fill="none" stroke="#6D7D4A" stroke-width="0.5" stroke-linecap="round" stroke-miterlimit="10" x1="35" y1="45.833" x2="52.313" y2="45.833"/>
			
				<line fill="none" stroke="#6D7D4A" stroke-width="0.5" stroke-linecap="round" stroke-miterlimit="10" x1="35" y1="49" x2="50.072" y2="49"/>
			
				<line fill="none" stroke="#6D7D4A" stroke-width="0.5" stroke-linecap="round" stroke-miterlimit="10" x1="35" y1="52.167" x2="52.313" y2="52.167"/>
			
				<line fill="none" stroke="#6D7D4A" stroke-width="0.5" stroke-linecap="round" stroke-miterlimit="10" x1="35" y1="55.334" x2="50.217" y2="55.334"/>
			
				<line fill="none" stroke="#6D7D4A" stroke-width="0.5" stroke-linecap="round" stroke-miterlimit="10" x1="35" y1="58.5" x2="43.375" y2="58.5"/>
			
				<line fill="none" stroke="#6D7D4A" stroke-width="0.5" stroke-linecap="round" stroke-miterlimit="10" x1="35" y1="61.667" x2="50.217" y2="61.667"/>
			
				<line fill="none" stroke="#6D7D4A" stroke-width="0.5" stroke-linecap="round" stroke-miterlimit="10" x1="35" y1="64.834" x2="47.453" y2="64.834"/>
		</g>
	</g>
</g>
<g id="Entities" display="none">
	<g display="inline">
		<rect fill="#1A1A1A" stroke="#070808" stroke-width="0.25" stroke-miterlimit="10" width="100" height="100"/>
		<rect x="1.5" y="1.5" fill="#F5F5F5" width="97" height="96.064"/>
		<g filter="url(#AI_Shadow_1)">
			<rect x="8.905" y="8.834" fill="#DD574B" width="82.187" height="81.396"/>
		</g>
		<rect x="5.784" y="5.744" fill="#F39943" width="88.429" height="87.578"/>
		<g>
			<polygon fill="#CC7A2B" points="57.108,15.023 57.108,46.931 89.173,46.931 			"/>
			<polygon fill="#CC7A2B" points="46.892,15.023 46.892,46.931 14.827,46.931 			"/>
			<polygon fill="#CC7A2B" points="14.827,57.147 46.892,57.147 46.892,88.741 			"/>
			<polygon fill="#CC7A2B" points="57.108,57.147 89.173,57.147 57.344,88.977 			"/>
		</g>
		<g>
			<polygon fill="#F0E9DF" points="55.108,13.023 55.108,44.931 87.173,44.931 			"/>
			<polygon fill="#3FAA96" points="44.892,13.023 44.892,44.931 12.827,44.931 			"/>
			<polygon fill="#F0E9DF" points="12.827,55.147 44.892,55.147 44.892,86.741 			"/>
			<polygon fill="#EF4228" points="55.108,55.147 87.173,55.147 55.344,86.977 			"/>
		</g>
	</g>
</g>
<g id="Links" display="none">
	<g display="inline">
		<rect fill="#1A1A1A" stroke="#070808" stroke-width="0.25" stroke-miterlimit="10" width="100" height="100"/>
		<rect x="1.5" y="1.5" fill="#F5F5F5" width="97" height="96.064"/>
		<g filter="url(#AI_Shadow_1)">
			<rect x="8.905" y="8.834" fill="#DD574B" width="82.187" height="81.396"/>
		</g>
		<rect x="5.784" y="5.744" fill="#DD574C" width="88.429" height="87.578"/>
	</g>
	<g display="inline">
		<g>
			<path fill="#BB4136" d="M81.389,64.825L67.058,48.526c-2.375-2.701-6.607-2.86-9.454-0.358l-7.855,6.905
				c-2.846,2.503-3.229,6.722-0.855,9.421l14.331,16.301c2.374,2.7,6.606,2.86,9.453,0.358l7.855-6.907
				C83.377,71.745,83.764,67.526,81.389,64.825z M69.971,75.232c-1.822,1.603-4.536,1.502-6.059-0.229l-9.187-10.448
				c-1.522-1.732-1.275-4.436,0.549-6.039l5.036-4.428c1.822-1.603,4.536-1.502,6.06,0.229l9.186,10.448
				c1.523,1.731,1.274,4.436-0.55,6.038L69.971,75.232z"/>
			<path fill="#BB4136" d="M55.594,35.486L41.263,19.187c-2.375-2.702-6.608-2.86-9.454-0.359l-7.855,6.906
				c-2.846,2.503-3.23,6.72-0.855,9.421l14.331,16.3c2.374,2.7,6.606,2.86,9.453,0.356l7.855-6.906
				C57.584,42.406,57.967,38.187,55.594,35.486z M44.177,45.892c-1.824,1.604-4.537,1.503-6.061-0.229l-9.186-10.448
				c-1.522-1.732-1.275-4.437,0.549-6.04l5.036-4.427c1.824-1.603,4.537-1.501,6.059,0.23l9.186,10.448
				c1.524,1.732,1.275,4.436-0.548,6.039L44.177,45.892z"/>
			<path fill="#BB4136" d="M64.051,63.421c-1.647,1.45-4.16,1.288-5.606-0.358l-18.37-20.895c-1.449-1.648-1.288-4.159,0.361-5.609
				l0,0c1.648-1.448,4.16-1.287,5.608,0.361l18.369,20.894C65.861,59.461,65.699,61.973,64.051,63.421L64.051,63.421z"/>
		</g>
		<g>
			<g>
				<path fill="#8BA650" d="M78.809,64.924L64.476,48.625c-2.373-2.701-6.605-2.86-9.453-0.358l-7.854,6.906
					c-2.847,2.503-3.23,6.72-0.855,9.421l14.332,16.3c2.373,2.701,6.606,2.86,9.453,0.357l7.854-6.906
					C80.797,71.845,81.184,67.625,78.809,64.924z M67.392,75.33c-1.823,1.604-4.537,1.504-6.061-0.229l-9.186-10.447
					c-1.523-1.733-1.275-4.437,0.549-6.041l5.036-4.426c1.822-1.604,4.536-1.504,6.06,0.229l9.185,10.449
					c1.524,1.731,1.275,4.435-0.549,6.038L67.392,75.33z"/>
				<path fill="#45909E" d="M53.014,35.585L38.682,19.286c-2.375-2.702-6.608-2.86-9.454-0.359l-7.855,6.906
					c-2.846,2.503-3.23,6.721-0.855,9.422l14.331,16.301c2.374,2.698,6.606,2.858,9.453,0.356l7.855-6.906
					C55.004,42.505,55.387,38.286,53.014,35.585z M41.596,45.991c-1.824,1.604-4.537,1.503-6.06-0.229l-9.186-10.448
					c-1.523-1.732-1.275-4.436,0.548-6.04l5.036-4.427c1.823-1.603,4.537-1.502,6.06,0.23l9.186,10.448
					c1.523,1.733,1.275,4.436-0.548,6.039L41.596,45.991z"/>
			</g>
			<path fill="#F8AA3E" d="M61.47,63.52c-1.524,1.341-3.936,1.09-5.381-0.557L37.718,42.069c-1.448-1.647-1.388-4.07,0.136-5.411
				l0,0c1.524-1.34,3.935-1.089,5.383,0.558l18.37,20.893C63.056,59.757,62.994,62.182,61.47,63.52L61.47,63.52z"/>
		</g>
	</g>
</g>
<g id="Template_1_" display="none">
	<g display="inline">
		<g>
			<rect fill="#5E584D" width="100" height="100"/>
			<g filter="url(#AI_Shadow_1)">
				<rect x="9.895" y="9.815" fill="#F0E9DF" width="80.208" height="79.435"/>
			</g>
			<rect x="5.783" y="5.744" fill="#F0E9DF" width="88.43" height="87.578"/>
		</g>
		<g>
			<path fill="#5E584D" d="M29.256,25v50h41.487V25H29.256z M68.364,73.249H31.632V26.75h36.732V73.249z"/>
			<rect x="33.681" y="29.163" fill="#5E584D" width="32.637" height="11.714"/>
			<rect x="33.681" y="42.724" fill="#5E584D" width="20.844" height="28.114"/>
			<rect x="56.927" y="42.723" fill="#5E584D" width="9.392" height="28.115"/>
			<g>
				
					<line fill="none" stroke="#EFE8DE" stroke-width="0.5" stroke-linecap="round" stroke-miterlimit="10" x1="36.148" y1="46.09" x2="52.059" y2="46.09"/>
				
					<line fill="none" stroke="#EFE8DE" stroke-width="0.5" stroke-linecap="round" stroke-miterlimit="10" x1="36.148" y1="49" x2="50" y2="49"/>
				
					<line fill="none" stroke="#EFE8DE" stroke-width="0.5" stroke-linecap="round" stroke-miterlimit="10" x1="36.148" y1="51.91" x2="52.059" y2="51.91"/>
				
					<line fill="none" stroke="#EFE8DE" stroke-width="0.5" stroke-linecap="round" stroke-miterlimit="10" x1="36.148" y1="54.821" x2="50.133" y2="54.821"/>
				
					<line fill="none" stroke="#EFE8DE" stroke-width="0.5" stroke-linecap="round" stroke-miterlimit="10" x1="36.148" y1="57.73" x2="43.845" y2="57.73"/>
				
					<line fill="none" stroke="#EFE8DE" stroke-width="0.5" stroke-linecap="round" stroke-miterlimit="10" x1="36.148" y1="60.642" x2="50.133" y2="60.642"/>
				
					<line fill="none" stroke="#EFE8DE" stroke-width="0.5" stroke-linecap="round" stroke-miterlimit="10" x1="36.148" y1="63.552" x2="47.593" y2="63.552"/>
			</g>
		</g>
	</g>
</g>
<g id="Entities_1_" display="none">
	<g display="inline">
		<g>
			<rect fill="#5E584D" width="100" height="100"/>
			<g filter="url(#AI_Shadow_1)">
				<rect x="9.895" y="9.815" fill="#F0E9DF" width="80.208" height="79.435"/>
			</g>
			<rect x="5.784" y="5.744" fill="#F0E9DF" width="88.429" height="87.578"/>
		</g>
		<g>
			<polygon fill="#5E584D" points="53.454,25 53.454,46.573 75.133,46.573 			"/>
			<polygon fill="#5E584D" points="46.546,25 46.546,46.573 24.867,46.573 			"/>
			<polygon fill="#5E584D" points="24.867,53.48 46.546,53.48 46.546,74.841 			"/>
			<polygon fill="#5E584D" points="53.454,53.48 75.133,53.48 53.613,75 			"/>
		</g>
	</g>
</g>
<g id="Links_1_" display="none">
	<g display="inline">
		<g>
			<rect fill="#5E584D" width="100" height="100"/>
			<g filter="url(#AI_Shadow_1)">
				<rect x="9.895" y="9.815" fill="#F0E9DF" width="80.208" height="79.435"/>
			</g>
			<rect x="5.784" y="5.744" fill="#F0E9DF" width="88.429" height="87.578"/>
		</g>
		<g>
			<g>
				<g>
					<path fill="#5E584D" d="M72.121,61.259L61.243,48.888c-1.801-2.05-5.014-2.17-7.175-0.271l-5.962,5.241
						c-2.161,1.9-2.452,5.101-0.649,7.15L58.335,73.38c1.802,2.05,5.015,2.17,7.175,0.271l5.962-5.241
						C73.631,66.511,73.924,63.309,72.121,61.259z M69.299,64.528c-0.018,0.188-0.102,0.554-0.469,0.877l-5.961,5.241
						C62.519,70.954,62.162,71,61.981,71c-0.188,0-0.453-0.046-0.643-0.261L50.46,58.366c-0.337-0.383-0.205-1.072,0.287-1.505
						l5.961-5.241c0.35-0.307,0.707-0.353,0.889-0.353c0.188,0,0.451,0.045,0.641,0.26L69.117,63.9
						C69.296,64.104,69.314,64.354,69.299,64.528z"/>
					<path fill="#5E584D" d="M52.544,38.992L41.666,26.621c-1.803-2.05-5.016-2.17-7.175-0.272l-5.961,5.242
						c-2.161,1.899-2.452,5.101-0.649,7.151l10.877,12.371c1.802,2.048,5.014,2.17,7.174,0.271l5.963-5.241
						C54.054,44.244,54.345,41.042,52.544,38.992z M49.253,43.137l-5.964,5.242c-0.349,0.307-0.705,0.353-0.886,0.353
						c-0.188,0-0.453-0.045-0.644-0.261L30.883,36.1c-0.179-0.204-0.198-0.455-0.182-0.629c0.018-0.188,0.101-0.554,0.469-0.876
						l5.962-5.243C37.48,29.046,37.836,29,38.018,29c0.188,0,0.453,0.045,0.644,0.262L49.54,41.633
						C49.875,42.015,49.745,42.705,49.253,43.137z"/>
				</g>
				<path fill="#5E584D" d="M57.547,58.584c-0.829,0.729-2.254,0.465-3.177-0.585L42.629,44.644
					c-0.927-1.054-1.007-2.499-0.177-3.229l0,0c0.829-0.728,2.253-0.466,3.181,0.588l11.739,13.353
					C58.3,56.409,58.375,57.856,57.547,58.584L57.547,58.584z"/>
			</g>
		</g>
	</g>
</g>
<g id="Template_Repositinges" display="none">
	<g display="inline">
		<g>
			<rect fill="#5E584D" width="100" height="100"/>
			<g filter="url(#AI_Shadow_1)">
				<rect x="9.895" y="9.815" fill="#F0E9DF" width="80.208" height="79.435"/>
			</g>
			<rect x="5.784" y="5.744" fill="#F0E9DF" width="88.429" height="87.577"/>
		</g>
		<g>
			<g>
				<rect x="33.916" y="25" fill="#C2BCB6" width="38.304" height="45.821"/>
				<g>
					<path fill="#5F594E" d="M71.425,44.667H34.712c-1.955,0-3.539,1.584-3.539,3.538v5.751c0,1.954,1.584,3.538,3.539,3.538h36.712
						c1.953,0,3.538-1.584,3.538-3.538v-5.751C74.963,46.25,73.378,44.667,71.425,44.667z M38.411,53.861H34.8v-5.563h3.611V53.861z
						"/>
					<path fill="#5F594E" d="M71.425,30.025H34.712c-1.955,0-3.539,1.583-3.539,3.538v5.751c0,1.954,1.584,3.538,3.539,3.538h36.712
						c1.953,0,3.538-1.584,3.538-3.538v-5.751C74.963,31.609,73.378,30.025,71.425,30.025z M38.411,39.205H34.8v-5.561h3.611V39.205
						z"/>
					<path fill="#5F594E" d="M71.425,59.439H34.712c-1.955,0-3.539,1.585-3.539,3.539v5.751c0,1.953,1.584,3.537,3.539,3.537h36.712
						c1.953,0,3.538-1.584,3.538-3.537v-5.751C74.963,61.024,73.378,59.439,71.425,59.439z M38.411,68.634H34.8v-5.56h3.611V68.634z
						"/>
				</g>
			</g>
			<g>
				<path fill="#E0DAD1" d="M52.011,59.52c-1.318,0-2.549,0.39-3.611,1.057c-1.524-4.093-5.501-7.011-10.168-7.011
					c-5.385,0-9.851,3.889-10.69,8.979c-3.648,0.298-6.504,2.966-6.504,6.213c0,3.204,2.781,5.841,6.359,6.198V75h0.826h10.009
					h13.779h0.352v-0.02c3.804-0.201,6.832-3.574,6.832-7.721C59.194,62.983,55.978,59.52,52.011,59.52z"/>
				<path fill="#5F594E" d="M27.923,72.372l-0.265-0.031c-2.276-0.229-3.993-1.769-3.993-3.583c0-1.827,1.797-3.405,4.09-3.593
					l2.045-0.169l0.334-2.023c0.647-3.928,4.053-6.78,8.097-6.78c3.428,0,6.525,2.131,7.706,5.301l1.126,3.022l2.733-1.713
					c0.691-0.434,1.436-0.653,2.214-0.653c2.512,0,4.556,2.292,4.556,5.11c0,2.73-1.907,4.968-4.342,5.096l-0.322,0.017H27.923z"/>
			</g>
		</g>
	</g>
</g>
<g id="Template_Repositinges_copy" display="none">
	<g display="inline">
		<g>
			<rect fill="#5E584D" width="100" height="100"/>
			<g filter="url(#AI_Shadow_1)">
				<rect x="9.895" y="9.815" fill="#F0E9DF" width="80.208" height="79.435"/>
			</g>
			<rect x="5.784" y="5.744" fill="#F0E9DF" width="88.429" height="87.577"/>
		</g>
	</g>
	<g display="inline">
		<g>
			<path fill="#5F594E" d="M30.543,23.965v50h41.488v-50H30.543z M69.652,72.213H32.92V25.716h36.732V72.213z"/>
			<rect x="34.969" y="28.128" fill="#5F594E" width="32.637" height="11.714"/>
			<rect x="34.969" y="41.689" fill="#5F594E" width="20.844" height="28.113"/>
			<rect x="58.215" y="41.688" fill="#5F594E" width="9.391" height="28.115"/>
			<g>
				
					<line fill="none" stroke="#EFE8DE" stroke-width="0.5" stroke-linecap="round" stroke-miterlimit="10" x1="37.436" y1="45.055" x2="53.346" y2="45.055"/>
				
					<line fill="none" stroke="#EFE8DE" stroke-width="0.5" stroke-linecap="round" stroke-miterlimit="10" x1="37.436" y1="47.965" x2="51.287" y2="47.965"/>
				
					<line fill="none" stroke="#EFE8DE" stroke-width="0.5" stroke-linecap="round" stroke-miterlimit="10" x1="37.436" y1="50.876" x2="53.346" y2="50.876"/>
				
					<line fill="none" stroke="#EFE8DE" stroke-width="0.5" stroke-linecap="round" stroke-miterlimit="10" x1="37.436" y1="53.786" x2="51.42" y2="53.786"/>
				
					<line fill="none" stroke="#EFE8DE" stroke-width="0.5" stroke-linecap="round" stroke-miterlimit="10" x1="37.436" y1="56.695" x2="45.133" y2="56.695"/>
				
					<line fill="none" stroke="#EFE8DE" stroke-width="0.5" stroke-linecap="round" stroke-miterlimit="10" x1="37.436" y1="59.605" x2="51.42" y2="59.605"/>
				
					<line fill="none" stroke="#EFE8DE" stroke-width="0.5" stroke-linecap="round" stroke-miterlimit="10" x1="37.436" y1="62.516" x2="48.88" y2="62.516"/>
			</g>
		</g>
		<g>
			<path fill="#E0DAD1" d="M57.499,61.276c-1.258,0-2.431,0.372-3.442,1.008c-1.453-3.902-5.247-6.684-9.695-6.684
				c-5.134,0-9.393,3.707-10.192,8.561c-3.478,0.283-6.201,2.828-6.201,5.923c0,3.055,2.652,5.569,6.063,5.91v0.041h0.786h9.544
				h13.138h0.335v-0.019c3.627-0.19,6.514-3.407,6.514-7.36C64.348,64.579,61.281,61.276,57.499,61.276z"/>
			<path fill="#5F594E" d="M34.533,73.53l-0.252-0.029c-2.17-0.219-3.808-1.687-3.808-3.417c0-1.742,1.713-3.246,3.899-3.425
				l1.95-0.161l0.319-1.93c0.617-3.744,3.864-6.464,7.719-6.464c3.268,0,6.222,2.031,7.347,5.054l1.074,2.882l2.604-1.634
				c0.659-0.412,1.37-0.622,2.112-0.622c2.394,0,4.344,2.185,4.344,4.872c0,2.604-1.819,4.736-4.14,4.858l-0.308,0.016H34.533z"/>
		</g>
	</g>
</g>
<g id="Users">
	<g>
		<g>
			<rect fill="#5E584D" width="100" height="100"/>
			<g filter="url(#AI_Shadow_1)">
				<rect x="9.895" y="9.815" fill="#F0E9DF" width="80.208" height="79.435"/>
			</g>
			<rect x="5.784" y="5.744" fill="#F0E9DF" width="88.429" height="87.577"/>
		</g>
	</g>
	<g>
		<g>
			<ellipse fill="#5F5A4F" cx="49.926" cy="39.489" rx="12.162" ry="14.489"/>
			<path fill="#5F5A4F" d="M76.137,75C75.199,63.256,63.855,53.979,50,53.979c-13.856,0-25.199,9.277-26.137,21.021H76.137z"/>
		</g>
		<g>
			<g>
				<path fill="#5F5A4F" d="M31.454,58.103c2.304-1.699,4.955-3.056,7.847-3.982c0.555-0.772,1.026-1.632,1.398-2.562
					c-2.791-1.916-4.854-5.351-5.302-9.444c-0.237-2.176,0.012-4.268,0.643-6.123c-1.219-0.675-2.574-1.055-4.003-1.055
					c-5.307,0-9.609,5.192-9.609,11.595C22.427,52.699,26.418,57.738,31.454,58.103z"/>
				<path fill="#5F5A4F" d="M31.71,57.919C20.826,58.084,11.971,65.561,11.23,75h10.135C21.902,68.027,25.843,61.894,31.71,57.919z"
					/>
			</g>
			<g>
				<path fill="#5F5A4F" d="M68.545,58.103c-2.304-1.699-4.953-3.056-7.846-3.982c-0.554-0.772-1.025-1.632-1.397-2.562
					c2.792-1.916,4.854-5.351,5.302-9.444c0.238-2.176-0.012-4.268-0.642-6.123c1.218-0.675,2.573-1.055,4.001-1.055
					c5.309,0,9.61,5.192,9.61,11.595C77.573,52.699,73.581,57.738,68.545,58.103z"/>
				<path fill="#5F5A4F" d="M68.291,57.919C79.175,58.084,88.03,65.561,88.771,75H78.635C78.099,68.027,74.157,61.894,68.291,57.919
					z"/>
			</g>
		</g>
	</g>
</g>
</svg>
